<?xml version="1.0" encoding="UTF-8"?>
<svg id="Layer_2" data-name="Layer 2" xmlns="http://www.w3.org/2000/svg" viewBox="0 0 181.49 245.49" fill="currentColor">
  <g id="Capa_1" data-name="Capa 1">
    <g>
      <path  d="M90.75,174.57C40.78,174.57,0,135.44,0,87.29S40.63,0,90.75,0s90.75,39.13,90.75,87.29-40.63,87.29-90.75,87.29M90.75,15.8c-40.93,0-74.19,32.06-74.19,71.48s33.26,71.48,74.19,71.48,74.19-32.06,74.19-71.48S131.68,15.8,90.75,15.8"/>
      <path  d="M64.41,45.75v3.46h.15c.3-.45.75-1.05,1.2-1.5.6-.45,1.2-.9,1.96-1.35.75-.45,1.66-.75,2.56-1.05s1.96-.45,3.16-.45c1.81,0,3.46.3,5.12,1.05,1.5.6,2.86,1.66,4.06,2.71,1.05,1.2,1.96,2.56,2.56,4.21.6,1.66.9,3.31.9,5.12s-.3,3.61-.9,5.12c-.6,1.66-1.5,3.01-2.56,4.21s-2.41,2.11-3.91,2.86c-1.66.75-3.31,1.05-5.27,1.05s-3.46-.3-4.97-1.05-2.71-1.66-3.46-3.01h0v15.8h-6.47v-37.32h6.17l-.3.15ZM79.46,58.09c0-.9-.15-1.96-.45-2.86-.3-.9-.75-1.81-1.35-2.56s-1.35-1.35-2.26-1.81-1.96-.75-3.31-.75-2.26.3-3.16.75-1.81,1.05-2.41,1.81-1.2,1.66-1.5,2.56c-.3.9-.45,1.96-.45,2.86s.15,1.96.45,2.86c.3.9.9,1.81,1.5,2.56s1.5,1.35,2.41,1.81c.9.45,1.96.75,3.16.75s2.41-.3,3.31-.75,1.66-1.05,2.26-1.81,1.05-1.66,1.35-2.56c.3-.9.45-1.96.45-2.86"/>
      <polygon  points="89.99 33.86 96.77 33.86 96.77 48.76 114.68 48.76 114.68 33.86 121.45 33.86 121.45 70.73 114.68 70.73 114.68 54.33 96.77 54.33 96.77 70.73 89.99 70.73 89.99 33.86"/>
      <polygon  points="63.36 137.4 48.91 137.4 69.98 97.37 45.45 97.37 45.45 87.14 83.22 87.14 83.22 96.62 63.36 137.4"/>
      <path  d="M95.41,131.08c0,1.96-.75,3.61-2.11,4.97-1.5,1.35-3.16,1.96-5.12,1.96s-1.96-.15-2.86-.6c-.9-.3-1.66-.9-2.41-1.5s-1.2-1.35-1.66-2.11c-.45-.75-.6-1.81-.6-2.71s.15-1.81.6-2.71c.45-.9.9-1.66,1.66-2.26.6-.6,1.5-1.2,2.41-1.5s1.96-.6,2.86-.6c1.96,0,3.76.6,5.12,1.96,1.5,1.35,2.11,3.01,2.11,4.97"/>
      <polygon  points="114.22 137.4 99.78 137.4 120.85 97.37 96.32 97.37 96.32 87.14 134.09 87.14 134.09 96.62 114.22 137.4"/>
    </g>
  </g>
</svg>