<?xml version="1.0" encoding="UTF-8"?>
<svg xmlns="http://www.w3.org/2000/svg" viewBox="0 0 201.15 245.68" fill="currentColor">
  <g fill="currentColor" id="Capa_1" data-name="Capa 1">
    <g>
      <path  d="M100.64,175.47c-50.26,0-91.05-39.28-91.05-87.74S50.52,0,100.64,0s91.05,39.43,91.05,87.74-40.93,87.74-91.05,87.74M100.64,15.95c-41.08,0-74.49,32.21-74.49,71.79s33.41,71.79,74.49,71.79,74.49-32.21,74.49-71.79S141.72,15.95,100.64,15.95"/>
      <polygon  points="77.31 26.94 77.76 27.69 78.52 27.69 78.67 27.99 80.02 28.14 80.02 28.59 80.17 28.74 80.32 28.89 81.83 29.5 82.13 29.2 83.18 29.8 83.93 29.95 84.08 30.85 84.23 30.85 84.38 31.15 85.29 31.3 85.44 31.75 85.44 32.66 85.59 32.96 86.49 33.56 86.94 34.01 87.54 33.86 88.75 35.22 89.5 35.22 89.95 35.67 90.86 36.27 91.46 36.57 91.61 37.02 92.36 37.32 92.66 38.07 93.11 38.38 94.77 38.68 94.92 39.28 95.22 39.28 95.37 40.03 95.97 40.48 96.42 40.78 97.93 40.18 98.68 39.73 99.89 40.03 100.49 40.63 101.24 40.63 101.99 41.08 102.59 41.54 102.9 41.54 103.35 41.54 103.65 41.84 103.95 41.54 104.4 41.99 105.15 42.29 105.9 42.74 106.96 42.59 108.01 43.19 108.61 43.19 109.07 43.79 109.82 44.24 110.72 44.55 110.87 44.7 111.17 44.85 111.32 45.3 111.77 45.6 112.83 46.05 113.28 46.5 113.43 46.65 113.58 46.65 113.88 46.95 115.24 47.41 115.99 47.41 116.29 47.71 116.29 47.86 116.59 48.01 117.79 48.31 118.25 49.21 118.85 49.21 120.2 50.11 120.8 50.26 120.95 50.26 121.41 50.42 122.46 51.17 123.21 52.22 123.96 52.52 124.57 53.12 125.32 53.43 126.67 54.33 127.27 55.38 127.58 55.53 129.23 56.43 130.89 58.54 131.64 58.84 131.94 58.69 132.39 60.05 132.69 60.2 133.29 60.95 133.75 62.15 133.75 62.3 134.35 62.61 134.8 63.21 135.4 63.36 135.55 64.11 136 64.71 136.15 65.46 136 65.77 136.3 66.67 135.85 67.57 136 68.02 136 68.02 135.7 68.78 136.15 69.53 136 70.43 136.15 71.33 135.7 72.54 136 73.74 135.85 74.04 136.15 76.3 136.3 76.6 137.06 76.6 137.81 76 137.96 75.7 138.11 76 138.11 76.45 138.71 75.85 138.71 75.4 139.01 75.1 139.31 75.25 139.92 75.1 140.52 75.4 141.27 75.25 141.87 75.55 142.47 75.55 142.47 75.25 143.23 76 143.53 76.9 144.13 77.96 144.73 79.61 144.73 80.81 144.28 81.72 144.58 83.37 144.43 84.43 144.58 84.73 145.03 85.18 146.69 85.93 146.69 86.38 146.84 87.29 147.44 87.89 148.49 88.49 148.95 89.24 149.7 89.69 150.15 90.45 154.06 92.55 154.66 92.55 155.87 93.61 156.92 94.21 158.28 95.41 157.98 95.86 157.22 95.86 157.37 96.62 157.07 97.52 157.37 97.67 156.62 99.17 155.42 100.83 152.11 103.39 151.65 103.99 150.6 104.89 150 105.5 149.7 105.5 148.34 106.7 147.74 107.75 147.44 107.9 146.24 109.26 145.48 110.16 144.13 111.06 142.93 111.67 142.17 112.12 141.57 112.87 140.07 113.47 137.81 113.62 137.21 113.92 137.06 114.53 136.46 115.28 135.1 115.73 134.5 116.48 133.45 116.93 133.14 117.54 132.09 117.23 131.04 117.38 130.74 118.14 128.78 118.44 128.33 118.29 128.03 118.59 127.58 118.74 127.43 118.44 126.52 118.74 125.92 118.74 123.36 117.54 122.76 117.54 122.01 117.38 121.71 117.69 121.41 117.99 121.1 117.84 119.75 118.14 119 118.74 118.55 119.19 117.64 120.39 116.14 121.45 115.39 122.65 114.18 123.55 112.53 124.16 111.92 124.91 110.27 125.21 109.67 125.96 108.76 126.56 107.86 127.77 107.26 128.97 106.51 129.27 105.9 129.42 105.15 129.42 104.7 129.72 104.1 129.72 102.74 130.48 102.9 131.38 102.14 131.83 101.84 131.83 101.24 132.28 100.79 133.04 100.19 133.94 99.73 134.09 99.43 134.54 99.13 138 98.68 138.75 97.48 139.81 97.18 140.26 97.18 141.31 96.57 141.76 96.72 142.07 95.97 143.12 95.82 143.87 95.52 144.32 95.52 144.62 95.22 144.77 94.47 144.62 93.87 144.77 94.02 145.08 93.71 146.43 93.26 146.58 92.96 146.58 92.96 147.33 92.36 147.63 91.76 148.09 91.01 149.29 90.55 149.14 90.1 149.74 89.05 150.04 89.35 149.59 89.05 148.84 89.05 147.78 88 146.58 87.09 146.28 86.04 145.23 84.84 144.62 83.78 144.47 83.03 143.87 82.73 143.12 80.77 142.22 79.87 140.86 78.82 140.41 78.52 140.56 77.76 140.26 77.31 140.26 76.56 139.81 75.96 139.81 75.35 139.51 74.75 139.66 74.45 139.21 73.7 138.75 73.55 137.25 72.95 136.2 72.65 136.2 72.19 134.84 71.44 134.69 70.84 131.53 70.99 130.03 70.84 129.72 71.14 129.27 71.14 128.97 71.44 128.67 71.44 128.07 70.99 128.22 71.29 127.17 71.74 125.96 71.59 125.51 71.89 124.76 71.89 123.25 72.19 122.65 72.19 121.15 72.34 120.39 72.34 119.49 72.34 118.89 72.95 117.69 72.95 116.33 73.1 116.03 73.1 114.37 72.95 113.32 72.8 113.02 73.25 112.27 73.25 111.82 73.25 110.91 72.19 108.51 72.19 107.75 71.59 107.3 71.59 106.85 71.29 106.25 70.84 105.65 71.29 104.89 71.29 104.44 70.99 104.44 70.84 103.99 70.84 103.24 70.54 103.09 70.39 101.88 69.79 100.23 70.24 98.87 70.09 98.57 69.49 98.27 68.73 98.27 68.13 97.82 68.13 97.07 67.83 96.32 67.68 95.71 67.08 94.96 67.23 94.36 67.53 94.06 67.53 93.16 67.38 92.7 67.53 92.4 66.78 92.1 66.78 91.5 67.23 91.2 67.08 90.9 66.63 90.75 66.78 90.15 66.63 89.54 66.17 88.64 66.17 87.59 65.27 86.38 65.12 85.48 64.82 84.43 64.22 84.28 62.26 83.37 62.11 82.32 62.41 81.12 61.96 80.97 61.96 79.91 61.51 79.91 61.36 79.46 61.06 79.61 60.76 79.31 60.46 77.35 59.7 76.45 59.85 75.85 60.46 75.7 60.46 74.64 60.61 73.89 60.31 72.39 60.46 72.24 60.61 71.63 61.36 71.03 61.36 70.58 61.66 70.28 62.11 70.28 62.56 69.83 63.16 69.23 63.47 68.47 64.07 68.17 64.22 67.72 64.82 67.72 64.67 66.97 65.42 66.07 66.02 65.16 66.33 65.16 66.78 64.71 67.53 64.41 68.58 64.41 68.88 64.71 70.09 64.41 70.09 63.36 70.09 62.45 70.84 62.15 70.99 61.7 71.59 61.4 71.59 60.95 71.89 60.35 72.34 60.2 72.34 59.6 72.5 59.14 72.95 58.99 72.95 57.94 73.25 57.79 73.4 57.19 73.85 57.19 73.85 56.43 74.6 56.59 74.45 55.98 75.05 55.53 75.2 54.93 75.96 54.03 76.71 53.88 77.16 54.48 77.16 54.33 77.31 53.58 77.61 52.67 77.76 51.62 77.76 50.72 77.76 50.42 78.06 49.81 77.91 48.91 77.61 48.61 76.86 47.25 76.41 46.35 75.66 45.75 75.51 44.85 74.9 44.55 74.6 43.64 73.85 42.14 73.4 42.14 73.1 41.84 73.1 40.48 72.19 37.62 72.34 36.87 72.04 34.91 71.74 34.76 71.59 34.31 71.74 32.81 72.04 31.75 72.19 29.5 73.55 28.29 74.45 27.39 75.2 26.94 75.81 26.94 76.11 27.09 76.71 26.94 77.31 26.94"/>
    </g>
  </g>
</svg>