<?xml version="1.0" encoding="UTF-8"?>
<svg id="Layer_2" xmlns="http://www.w3.org/2000/svg" version="1.1" viewBox="0 0 241.8 240.8" fill="currentColor">
  <!-- Generator: Adobe Illustrator 29.8.2, SVG Export Plug-In . SVG Version: 2.1.1 Build 3)  -->
  <defs>
    <style>
      .st0 {
        fill: #fff;
      }
    </style>
  </defs>
  <path d="M241.8,118.3C240.4,51.6,185.1-1.4,118.3,0,51.6,1.4-1.4,56.7,0,123.5c1.1,55.3,39.3,101.2,90.4,114.4.3,0,.7.2,1,.3.5.1,1,.2,1.4.3.6.1,1.2.3,1.8.4.2,0,.3,0,.5.1,8.3,1.8,16.9,2.8,25.8,2.8s10.4-.3,15.5-1h0c60.5-7.7,106.6-60,105.3-122.4h0Z"/>
  <path class="st0" d="M136.4,160.6h29.7l4.2-34.8h-33.9v-22.2c0-11.9,4.6-16.6,15-16.6h20.2v-31c-44.3-7-71.5,4.5-71.5,47.5v22.2h-30v34.8h30v79.5c-1.7-.3-3.3-.6-5-1,8.3,1.8,16.9,2.8,25.8,2.8s10.4-.3,15.5-1v-80.2Z"/>
</svg>