<?xml version="1.0" encoding="UTF-8"?>
<svg id="Layer_2" data-name="Layer 2" xmlns="http://www.w3.org/2000/svg" viewBox="0 0 182.7 245.64" fill="currentColor">
  <g id="Capa_1" data-name="Capa 1">
    <g>
      <path  d="M105.8,63.51c-13.85,0-29.2-5.12-29.2-5.12-18.51,46.5-50.11,54.78-49.36,56.43,62.76,84.73,133.04,3.61,128.97,0-45.6-6.32-50.42-51.32-50.42-51.32M106.25,31.45c0,1.5,1.35,2.86,2.86,2.86s2.86-1.2,2.86-2.86-1.35-2.86-2.86-2.86-2.86,1.2-2.86,2.86M91.95,52.97l-1.35-23.93-1.5,23.03-5.27-14.3,1.66,14.75-15.2-29.05,10.84,32.21c8.13,4.82,20.92,3.31,20.92,3.31l4.36-21.52-9.33,15.95,6.47-38.98-11.74,38.53h.15ZM90.45,17.91c0,2.11,1.81,3.76,3.91,3.76s3.91-1.66,3.91-3.76-1.81-3.76-3.91-3.76-3.91,1.66-3.91,3.76M82.62,32.06c1.81,0,3.31-1.5,3.31-3.16s-1.5-3.16-3.31-3.16-3.31,1.35-3.31,3.16,1.5,3.16,3.31,3.16"/>
      <path  d="M91.35,0C40.93,0,0,39.43,0,88.04s40.93,88.04,91.35,88.04,91.35-39.43,91.35-88.04S141.76,0,91.35,0M116.78,6.47c2.11,0,3.91,1.66,3.91,3.76s-1.81,3.76-3.91,3.76-3.91-1.66-3.91-3.76,1.81-3.76,3.91-3.76M86.38.15c3.61,0,6.47,2.86,6.47,6.32s-2.86,6.32-6.47,6.32-6.47-2.86-6.47-6.32S82.77.15,86.38.15M91.35,159.97c-41.24,0-74.8-32.36-74.8-71.94S39.13,27.84,70.13,18.96c-.45-.45-.75-1.2-.75-1.96,0-1.66,1.35-3.01,3.16-3.01s3.16,1.35,3.16,3.01v.6c4.97-1.05,10.23-1.66,15.65-1.66,41.24,0,74.8,32.21,74.8,71.94s-33.56,71.94-74.8,71.94"/>
    </g>
  </g>
</svg>