<?xml version="1.0" encoding="UTF-8"?>
<svg id="Layer_2" data-name="Layer 2" xmlns="http://www.w3.org/2000/svg" viewBox="0 0 534.9 179.21">
  <defs>
    <style>
      .cls-1 {
        fill: #fff;
      }
    </style>
  </defs>
  <g id="Capa_1" data-name="Capa 1">
    <g>
      <path class="cls-1" d="M414.9,8.4c9.9,9.19,20.67,27.07,29.06,38.21,27.8,36.89,59.37,75.86,84.97,114.34,2.45,3.69,7.06,8.53,5.73,13.02-1.8,6.06-18.01,5.64-21.9,2.11-.83-.75.08-2.15-.06-2.26-3.18-2.62-14.16,2.87-18.77,3.46-3.15.4-8.18.65-11.26.27-3.76-.46-5.78-2.91-8.81-3.63-4.71-1.11-10.33,4.54-16.38,4.98-6.37.46-13.55-4.04-17.83-4.15-2.27-.06-7.05,2.75-9.9,3.49-8.32,2.16-17.24.84-23.61-5.24-8.54,4.7-18.55,7.12-28.07,3.86-4.48-1.54-7.57-6.25-13.05-3.12l-.54-1.97c-1.84-.32-.42,2.01-1.06,2.73-.4.45-10.56,2.12-11.85,2.12-3.51,0-8.82-1.95-12.23-3.15-1.29-.45-8.06-5.36-5.46-.77-10.89,4.74-20.55,5.83-31.37.31-1.16-.59-1.22-2.2-1.71-2.25-2.89-.3-7.09,6.13-11.91,2.93l.95,2.86c-5.53.23-9.85.32-15.07-1.63-1.09-.41-1.23-1.78-1.42-1.85-9.04-3.55-15.45,3.32-24.21,3.56-4.15.11-3.19-1.76-3.76-1.81-.63-.06-1.62.89-3.37.41-2.47-.67-5.33-4.04-6.37-4.25-3.22-.63-23.96,16.79-27.13-1.12l4.77.47-3.82-1.91c3.14-.76.84-2.05,1.8-3.87,7.15-13.54,26.44-32.57,36.48-45.21,16.73-21.06,32.45-42.97,48.75-62.91,7.16-8.76,15.29-19.71,23.98-25.43l-.71-1.68c7.8-7.68,15.79-17.17,24.55-23.72,11.71-8.75,14.15,2.09,23.36,5.5,17.81,6.61,21.78-10.71,34.62-9.81,3.01.21,10.33,4.98,12.61,7.09ZM421.37,24.9c-3.61-4.41-13.86-18.1-19.31-18.57-3.96-.34-14.62,9.71-19.63,11.53-6.47,2.36-13.77.27-19.74-2.72-2.57-1.29-8.32-6.63-9.41-6.94-2.1-.59-8.8,4.38-10.83,6.06-30.41,25.15-60.76,71.26-85.71,102.86-12.83,16.26-26.23,31.93-38.7,48.45-1.28,1.7-4.23,2.1-3.81,6.2.84,1.21,9.96.45,11.28-.29.39-.22.71-1.88,1.74-2.44,1.39-.74,6.64-3.61,7.56-3.61,2.34,0,8.46,5.14,12.51,5.32,6.8.31,15.49-5.64,19.88-5.41,2.84.15,7.04,3.94,10.2,4.98,7.76,2.55,14.89-.08,21.55-4.28l.47,3.81c1.49.3.91-1.67,1.86-2.36,2.31-1.68,4.31,1.24,5.21,1.54,9.07,3.07,15.29,3.87,24.05-1.11l.51,1.85,1.37.07,1.95-3.83c12.53,7.65,23.34,5.17,36.29.06,5.74,2.74,8.09,6.99,15.44,7.6,6.67.56,17.76-6.71,19.87-6.53,1.64.14,8.16,5.28,11.12,6.09,11.14,3.05,15.97-3.8,23.47-3.45,4.75.22,9.86,5.41,16.17,4.81,4.98-.48,13.98-6.8,16.3-6.68,2.25.12,5.13,3.07,7.55,4.04,9.13,3.67,18.49-1.73,27.01-4.98,6.86,6.09,13.26,8.43,22.47,5.74l-46.72-63.83c-3.16-4.32-7.4-9.71-8.82-14.66l-1.72.79c-17.81-22.61-33.32-48.01-51.44-70.12Z"/>
      <path class="cls-1" d="M377.54,73.24c5.53-1.87,12.44,12.75,3.49,14.13-7.42,1.14-7.11-12.91-3.49-14.13Z"/>
      <path class="cls-1" d="M313.62,122.79c-1.28.8-6.64.06-7.57-1.43-1.35-2.15-1.72-8.1.64-9.82,6.76-4.93,10.92,8.74,6.94,11.25Z"/>
      <path class="cls-1" d="M444.7,117.98c-.13.22-4.12,2.51-4.51,2.61-5.13,1.31-9.72-15.82-.77-12.75,2.89.99,6.99,7.23,5.28,10.14Z"/>
      <path class="cls-1" d="M334.63,49.47c1.65,1.54.2,9.9-3.16,10.33-8.7,1.1-8.11-16.42,3.16-10.33Z"/>
      <path class="cls-1" d="M357.04,51.36c7.02-4.09,11.54,10.23,3.15,10.24-5.3,0-6.47-8.31-3.15-10.24Z"/>
      <path class="cls-1" d="M462.71,119.19c2.46-.78,8.63,2.89,8.12,6.16-4.24,12.3-14.89-4.02-8.12-6.16Z"/>
      <path class="cls-1" d="M424.32,70.33c3.22,2.95,7.13,6.26,4.21,10.88-4.95,7.8-11.69-7.18-4.21-10.88Z"/>
      <path class="cls-1" d="M397.28,122.8l1.74.68c-4.4,13.75-12.14,4.92-6.64-5.18l4.7.31.2,4.19Z"/>
      <path class="cls-1" d="M407.32,87.8c3.28,3.14,3.06,11.87-2.9,10.14-5.86-1.71-2.28-15.1,2.9-10.14Z"/>
      <path class="cls-1" d="M366.29,115.17c-4.17,2.64-10.3-4.87-5.58-8.94,5.65-4.87,8.19,7.29,5.58,8.94Z"/>
      <path class="cls-1" d="M476.58,142.19c4.33-1.71,6.87-.56,9.3,3.4-1.46,7.87-11.81,4.12-9.3-3.4Z"/>
      <path class="cls-1" d="M374.9,146.8c-7.4.52-4.26-11.34.59-10.44,2.95.55,1.14,8.7-.59,10.44Z"/>
      <path class="cls-1" d="M292.63,98.16l-1.1,7.33c-1.46,1.52-4.94.97-6.03-.68-1.35-2.04,3.72-9.55,7.13-6.64Z"/>
      <path class="cls-1" d="M286.04,138.28l.95,1.91,1.93-2.87c2.3.77,3.45,4.28,3.62,6.5.52,6.69-11.03.49-6.5-5.53Z"/>
      <path class="cls-1" d="M331.02,94.23l1.43-2.88c1.79,3.57-.95,6.07-4.32,4.33-3.53-2.52-1.3-6.52-.94-10.07,4.65.29,3.94,5.15,3.83,8.61Z"/>
      <path class="cls-1" d="M254.15,145.11l2.97,3.02c0,5.97-7.27,6.14-7.39.32l4.43-3.34Z"/>
      <path class="cls-1" d="M274.35,129.83c1.69,2.91-1.61,6.13-5.09,4.72-6.43-2.6,2.23-9.64,5.09-4.72Z"/>
      <path class="cls-1" d="M353,75.09c.98,2.32,3.68,8.73-.45,9.32-4.06.58-4.71-9.41.45-9.32Z"/>
      <path class="cls-1" d="M316.75,149.67c-.44-.31-1.38-3.75-.63-4.68,3.44-4.39,7.36-2.37,5.83,2.86-.73,1.52-3.97,2.66-5.19,1.82Z"/>
      <path class="cls-1" d="M350.85,147.14c3.27,3.27-2.54,7.3-4.55,6.05-3.87-2.41.89-9.71,4.55-6.05Z"/>
      <path class="cls-1" d="M425.69,123.98l-.02,6.54c-5.06.9-7.29-1.16-4.23-5.66l4.25-.88Z"/>
      <polygon class="cls-1" points="397.99 52.11 398.82 59.14 398.05 60.3 395.14 60.72 394.31 53.7 395.08 52.54 397.99 52.11"/>
      <path class="cls-1" d="M447.54,157.17c-3.21,3.1-7.17-1.68-5.1-4.59,2.43-3.4,8.12,1.67,5.1,4.59Z"/>
      <path class="cls-1" d="M454.38,91.28l-3.79-.35c-.63-.43-1.06-1.86-1.26-2.67-.6-2.45,1.2-2.85,2.74-4.53,2.54,2.15,3.99,4.35,2.31,7.56Z"/>
      <path class="cls-1" d="M338.59,123.99c1.91,1.34.21,7.45-3.2,6.6-3.66-.91-.87-9.47,3.2-6.6Z"/>
      <polygon class="cls-1" points="308.04 79.87 307.61 84.72 303.35 85.51 302.7 80.78 308.04 79.87"/>
      <path class="cls-1" d="M420.73,48.54c5.99,6.14-6.22,10.03-3.47.35.53-1.86,2.4-1.44,3.47-.35Z"/>
      <path class="cls-1" d="M411.16,148.07c4.8,5.12-5.73,9.73-4.52-.2,1.43-.36,3.35-1.06,4.52.2Z"/>
      <path class="cls-1" d="M21.3,61.01l-6.53.17c-5.72,24.03-24.72-3.77-8.1-7.63,8.57-1.99,5.93,5.57,13.54,3.49,1.89-1.16.74-22.46,11.59-17.57,5.77,2.6,1.51,9.63-.93,7.16-.39-.4,1.01-1.93.75-2.71-.05-.14-2.01-2.08-2.16-2.06-4.38.36-3.84,10.77-5.13,13.91l1.99,1.2c1.78-1.11,8.03-1.5,7.42,1.62-.52,2.68-7.64.32-9.17,2.37l1.51,18.22-3.68-.15c.08-1.04-1.11-2.69-1.11-3.19v-14.84ZM9.81,58.13c-10.65-.88-3.1,14.35-.43,5.79.59-1.9.51-3.84.43-5.79Z"/>
      <path class="cls-1" d="M73.93,72.02c-.19.6-3.51,3.16-4.34,1.47-1.5-2.73,1.05-12.69-1.84-13.17l-11.04.71-.86,11.88-4.91.06c2.16-3.94-.89-32.07,4.32-32.04,4.25,3.14.69,11.92,1.51,14.68.95,3.21,9.58.16,12.34.59l1.85-13.77,2.96-.56v30.16Z"/>
      <path class="cls-1" d="M89.25,138.07c7.17-6.29,21.85-2.98,18.9,8.39-.61,2.35-5.05,6.82-5.13,8.83-.1,2.48,5,13.22,3.45,14.85-8.37-.85-3.79-13.67-13.39-15.31v13.4h-3.83v-30.16ZM93.12,151.9c13.18,3.62,15.97-20.08.38-12.44l-.38,12.44Z"/>
      <path class="cls-1" d="M59.78,28.76c-.24.08.4,2.2-3.45,1.59-14.71-2.35-8.54-29.65,4.7-29.2,12.24.42,9.63,23.79,1.37,27.8-.95.46-1.98-.4-2.62-.19ZM64.14,6.66c-5.47-2.55-7.77-1.79-9.82,3.61-1.2,3.18-3.29,13.92.47,15.8,8.69,4.35,13.35-13.78,9.35-19.41Z"/>
      <path class="cls-1" d="M113.79,28.12c-7.81,7.08-17.81-1.81-16.66-11.36,1.04-8.61,8.85-19.59,18.01-12.77,6.42,4.78,4.27,19.04-1.35,24.13ZM112.95,6.67c-7.25-7.36-17.28,16.39-7.47,19.48,9.13,2.87,11.54-15.34,7.47-19.48Z"/>
      <path class="cls-1" d="M50.95,92.6c3.39,6.88,4.25,14.51,6.61,21.68.27.81-.54,2.97,1.53,2.26,1.27-.44,7.85-22.3,9.22-25.25,1.35-2.86,3.63-1.25,4.17,1.2.69,3.15-11.57,31.27-13.4,31.71-1.79,0-2.78-1.82-3.53-3.16-1.56-2.79-7.75-24.83-7.3-26.91.25-1.14,1.54-1.79,2.69-1.53Z"/>
      <path class="cls-1" d="M82.27,1.85c6.41-1.47,11.33,3.86,11.72,9.96.31,4.76-2.69,16.53-8.12,17.58-17,3.29-15.93-24.71-3.6-27.54ZM80.9,6.72c-3.77,3.16-6.46,19.7,2.03,18.86,10.62-1.05,7.28-26.65-2.03-18.86Z"/>
      <path class="cls-1" d="M139.95,119.4c-1.55-1.2-4.73,8.31-12.18,3.1-9.46-6.62,4.92-28.52,13.37-16.24,3.64,5.29,1.21,11.92,5.5,16.5-3.16,3.5-6.4.63-6.7-3.36ZM136.97,106.14c-5.66-3.56-11.39,10.6-5.35,13.55,4.64,2.2,7.98-10.36,5.35-13.55Z"/>
      <path class="cls-1" d="M160.05,135.68c1.45,6.24.39,12.78.02,19.14,5.22-1.42,7.17-9.04,13.4-6.69l-9.57,7.67c3.36,3.26,4.09,10.27,9.57,10.53l-1.45,3.81c-4.48-2.75-8.79-6.17-10.05-11.48-3.19.96-1.21,8.58-1.91,9.57l-3.78-1.02c1.59-10.42-.93-21.33.97-31.49l2.8-.04Z"/>
      <path class="cls-1" d="M38.52,3.58c.61,4.9-5.71,5.44-6.7,9.55,11.57,2.19,9.08,14.25-.49,17.24l-.47-2.87-1.9.47.94,2.4c-3.74.14-10.5-2.7-6.22-6.68,4.53,4.03,11.57,2.53,11.78-4.21-.48-2.52-7.82-4.76-10.34-3.47l.14-3.69c3.82-.51,5.16-4.2,7.52-6.82h-9.07c-3.78-6.73,14.11-2.93,14.81-1.91Z"/>
      <path class="cls-1" d="M97.86,74.4c-3.35.43-4.98-.24-4.79-3.83l-8.27,4.59c-17.84-6.09,5.89-30.64,9.98-15.38,1.26,4.69.76,10.05,3.08,14.62ZM91.16,59.1c-7.29-2.56-11.8,10.1-4.3,12.43l4.3-12.43Z"/>
      <path class="cls-1" d="M105.53,67.71l6.23-6.77c4.68-.51,2.55,5.26,6.19,4.86l2.9-10.53c6.32-.76-.54,16.86-1.9,17.74-2.98,1.93-5.98-6.72-8.15-6.25-2.23,1.05-4.51,8.92-7.18,6.69-.88-.74-3.55-17.38-2.89-18.18,5.22.52,4.42,8.61,4.79,12.44Z"/>
      <path class="cls-1" d="M189.46,75.36c-3.3.67-4.4-2.05-4.79-4.78-.57-.44-8.23,9.44-11.89,1.86-3.77-7.79,2.91-18.47,11.23-16.02,5.75,1.7,2.49,14.05,5.46,18.94ZM181.48,59.21c-6.59.53-7.46,18.02-.59,9.97,1.83-2.15,2.37-5.78,2.78-8.55l-2.19-1.41Z"/>
      <path class="cls-1" d="M141.66,57.4l4.98,15.58-2.39,1.47-1.46-.48-1.89-4.35c-18.94,16.92-17.49-18.21.75-12.22ZM132.33,71.53c3.62,2.43,8.11-9.53,6.67-12.44-5.04,2.37-9.41,6.6-6.67,12.44Z"/>
      <path class="cls-1" d="M194.25,55.26c3.66-.59,4.06,1.68,3.84,4.79,8.13-9.53,14.2-1.91,13.46,8.19-.44,6-4.26,6.68-4.9.96-.27-2.41,1.5-10.55-3.22-9.07-3.33,3.99-6.03,8.89-5.35,14.28-1.6.7-3.82-2.73-3.82-3.35v-15.8Z"/>
      <path class="cls-1" d="M152.41,105.05c-1.73,2.37,1.74,1.8.97,4.78,7.18-6.73,12.67-6.72,13.43,4.26.12,1.8.52,7.54-1.48,8.17-6.07,1.91-1.41-13.2-4.77-13.37-5.66,2.72-7.63,8.39-7.19,14.34l-3.37-.94-.45-14.85,2.87-2.39Z"/>
      <path class="cls-1" d="M119.64,151.18c8.06-.7,11.28,13.69,4.03,18.44-10.95,7.17-16.88-17.33-4.03-18.44ZM121.78,153.87c-8.04,3.06-7.05,8.99-1.43,14.34,3.63-4.09,2.38-9.56,1.43-14.34Z"/>
      <path class="cls-1" d="M87.05,105.34c5.98,4.48,2.73,21.62-7.41,18.44-11.12-3.48-2.07-25.55,7.41-18.44ZM84.38,120.28c.97-.65,2.75-12.42-1.36-12.4-6.62.03-4.99,16.65,1.36,12.4Z"/>
      <path class="cls-1" d="M8.85,13.62c.11-1.02,2.16-6,1.91-6.21l-3.82,1.9c-1.32-1.7,7.3-13.04,8.56-8.05.34,1.35-1.62,12.55-1.86,15.24-.33,3.72.43,7.53-.24,11.24-.54,2.96-1.93,6.46-4.55,3.11.42-5.54-.58-11.8,0-17.23Z"/>
      <path class="cls-1" d="M121.78,116.54c1.06,3.85-4.33,7.01-7.29,7.37-10.47,1.26-9.38-20.43-1.75-21.74,6.94-1.19,8.62,6.73,5.69,6.69l-3.06-2.75c-3.89-1.03-6.65,6.58-4.19,10.02,3.55,4.94,9.45-.74,10.59.41Z"/>
      <path class="cls-1" d="M192.26,108.23c-.5-.37-1.52-.19-2.19-.64-.66-.44.21-1.97-1.27-1.57-1.08,2.79-2.61,2.56-2.9,6.21-.95,12.01,8,2.69,9.58,4.32.84,2.68-3.28,5.87-5.49,6.46-15.05,4.04-8.62-24.37,2.39-19.17,2.39,1.13,4.53,5.07,1.67,6.94-.57-.05-.96-1.93-1.79-2.55Z"/>
      <path class="cls-1" d="M145.73,156.73c-3.09-8.01-10.74-3.09-8.21,4.85,2.66,8.33,10.8,2.19,12.97,3.79-3.73,7.59-12.64,7.17-15.78-.98-5.92-15.37,11.59-19.17,12.77-10.78l-1.76,3.12Z"/>
      <path class="cls-1" d="M100.73,90.68c.63,3.79-1.07,7.35-1.04,11.01.02,2.25,1.06,4.38,1.08,6.67.03,2.75,1.19,16.55-2.42,15.83-1.62-.32-1.69-5.12-1.81-6.58-.51-5.78-.77-14.01-.61-19.8.11-3.89-.1-8.52,4.8-7.12Z"/>
      <path class="cls-1" d="M155.27,55.27c1.42,6.53,3.49,13.03-.46,19.14-3.38-2.36-2.7-8.15-2.44-12,.06-.95.69-9.27,2.9-7.14Z"/>
      <path class="cls-1" d="M165.52,55.44c1.42,6.53,3.49,13.03-.46,19.14-3.38-2.36-2.7-8.15-2.44-12,.06-.95.69-9.27,2.9-7.14Z"/>
      <path class="cls-1" d="M175.38,105.05v17.23l-2.39.94c-1.86-.03-3.5-18.47,2.39-18.17Z"/>
      <path class="cls-1" d="M130.13,8.09c-.21.25-2.5,1.33-2.59,1.22-.48-2.78-1.03-5.56,1.44-7.65,3.35.28,2.73,4.55,1.15,6.43Z"/>
      <path class="cls-1" d="M154.55,52.34c3.22,0,3.22-5,0-5s-3.22,5,0,5h0Z"/>
      <path class="cls-1" d="M164.8,51.8c3.22,0,3.22-5,0-5s-3.22,5,0,5h0Z"/>
      <path class="cls-1" d="M173.97,103.05c3.22,0,3.22-5,0-5s-3.22,5,0,5h0Z"/>
    </g>
  </g>
</svg>