<?xml version="1.0" encoding="UTF-8"?>
<svg id="Layer_2" data-name="Layer 2" xmlns="http://www.w3.org/2000/svg" viewBox="0 0 241.8 241.8" fill="currentColor">
  <g id="_àð_1" data-name="˜àð_1">
    <g>
      <circle cx="120.9" cy="120.9" r="120.9"/>
      <g>
        <path class="cls-1" d="M149.35,188.96h-56.91c-21.84,0-39.6-17.77-39.6-39.6v-56.91c0-21.84,17.77-39.6,39.6-39.6h56.91c21.84,0,39.6,17.77,39.6,39.6v56.91c0,21.84-17.77,39.6-39.6,39.6ZM92.45,64.93c-15.17,0-27.52,12.35-27.52,27.52v56.91c0,15.17,12.35,27.52,27.52,27.52h56.91c15.17,0,27.52-12.35,27.52-27.52v-56.91c0-15.17-12.35-27.52-27.52-27.52h-56.91Z"/>
        <path class="cls-1" d="M120.9,155.89c-19.29,0-34.99-15.7-34.99-34.99s15.7-34.99,34.99-34.99,34.99,15.7,34.99,34.99-15.7,34.99-34.99,34.99ZM120.9,98c-12.63,0-22.9,10.27-22.9,22.9s10.27,22.9,22.9,22.9,22.9-10.27,22.9-22.9-10.27-22.9-22.9-22.9Z"/>
        <path class="cls-1" d="M164.74,84.54c0,4.15-3.36,7.51-7.51,7.51s-7.51-3.36-7.51-7.51,3.36-7.51,7.51-7.51,7.51,3.36,7.51,7.51Z"/>
      </g>
    </g>
  </g>
</svg>