<?xml version="1.0" encoding="UTF-8"?>
<svg id="Layer_1" xmlns="http://www.w3.org/2000/svg" version="1.1" viewBox="0 0 224 87.7" fill="currentColor">
  <!-- Generator: Adobe Illustrator 29.8.2, SVG Export Plug-In . SVG Version: 2.1.1 Build 3)  -->
  <path d="M188.3,33.2c0-3.7,3-6.8,6.8-6.8h2.3c3.7,0,6.8,3,6.8,6.8v13.8h4.5v-13.8c0-6.2-5-11.2-11.2-11.2h-2.3c-6.2,0-11.2,5-11.2,11.2v13.8h4.5v-13.8h-.2ZM69,34.9v-1.7c0-6.2-5-11.2-11.2-11.2h-2.3c-6.2,0-11.2,5-11.2,11.2v3.3c0,6.2,5,11.2,11.2,11.2h2.3c2.5,0,4.9-.9,6.8-2.3v1.5h4.5v-12.1h0ZM64.6,36.6c0,3.7-3,6.8-6.8,6.8h-2.3c-3.7,0-6.8-3-6.8-6.8v-3.3c0-3.7,3-6.8,6.8-6.8h2.3c3.7,0,6.8,3,6.8,6.8v3.3ZM29.6,22h-2.3c-2.5,0-4.8.8-6.7,2.2v-11.2h-4.5v34.1h4.5v-14.8c.5-3.3,3.3-5.8,6.7-5.8h2.3c3.7,0,6.8,3,6.8,6.8v13.9h4.5v-13.9c0-6.2-5-11.2-11.2-11.2M138.9,23v24h4.5v-24h-4.5ZM138.9,16.3v4h4.5v-4h-4.5ZM147.3,23v24h4.5v-24h-4.5ZM147.3,16.3v4h4.5v-4h-4.5ZM134.9,34.9v-1.7c0-6.2-5-11.2-11.2-11.2h-2.3c-6.2,0-11.2,5-11.2,11.2v3.3c0,6.2,5,11.2,11.2,11.2h2.3c2.5,0,4.9-.9,6.8-2.3v1.5h4.5v-12.1h-.1ZM130.4,36.6c0,3.7-3,6.8-6.8,6.8h-2.3c-3.7,0-6.8-3-6.8-6.8v-3.3c0-3.7,3-6.8,6.8-6.8h2.3c3.7,0,6.8,3,6.8,6.8v3.3ZM180.2,34.9v-1.7c0-6.2-5-11.2-11.2-11.2h-2.3c-6.2,0-11.2,5-11.2,11.2v3.3c0,6.2,5,11.2,11.2,11.2h2.3c2.5,0,4.9-.9,6.8-2.3v1.5h4.5v-12.1h-.1ZM175.7,36.6c0,3.7-3,6.8-6.8,6.8h-2.3c-3.7,0-6.8-3-6.8-6.8v-3.3c0-3.7,3-6.8,6.8-6.8h2.3c3.7,0,6.8,3,6.8,6.8v3.3ZM101.5,22.8v13.1c0,1.3-.4,2.5-1.1,3.6l-1.8,2.6c-.4.6-1.1.9-1.8.9h0c-.7,0-1.4-.3-1.8-.9l-1.8-2.6c-.7-1.1-1.1-2.3-1.1-3.6v-13.1h-4.5v13.1c0,1.3-.4,2.5-1.1,3.6l-1.8,2.6c-.4.6-1.1.9-1.8.9s-1.4-.3-1.8-.9l-1.8-2.6c-.7-1.1-1.1-2.3-1.1-3.6v-13.1h-4.5v13.1c0,2.2.7,4.4,2,6.2l1.8,2.6c1.3,1.8,3.3,2.8,5.4,2.8h0c2.2,0,4.2-1.1,5.4-2.8l1.6-2.2,1.6,2.2c1.3,1.8,3.3,2.8,5.4,2.8h0c2.2,0,4.2-1.1,5.4-2.8l1.8-2.6c1.3-1.8,2-3.9,2-6.2v-13.1s-4.6,0-4.6,0ZM174.4,56.3v-.5s.2-.3.3-.4c.1,0,.2-.2.4-.2h1c.1,0,.3,0,.4.2.1,0,.2.2.3.4v1s-.2.3-.3.4c-.1,0-.2.2-.4.2h-1c-.1,0-.3,0-.4-.2-.1,0-.2-.2-.3-.4v-.5M174.6,56.3v.4s.1.2.2.3c0,0,.2.2.3.2h.8c.1,0,.2,0,.3-.2s.2-.2.2-.3v-.8s-.1-.2-.2-.3c0,0-.2-.2-.3-.2h-.8c-.1,0-.2,0-.3.2s-.2.2-.2.3v.4M175.1,55.6h.5c.3,0,.5,0,.5.4s0,.2-.1.3h-.3l.4.6h-.2l-.4-.6h-.2v.6h-.2v-1.4h0ZM175.3,56.2h.4v-.2h-.4v.5-.3Z"/>
  <g>
    <path  d="M53.9,63.8c.3.4.6.7,1,.9s.8.3,1.3.3h.7c.2,0,.5-.2.7-.3.2,0,.4-.3.5-.5,0-.2.2-.5.2-.8s0-.7-.4-.9c-.3-.2-.6-.4-1-.5s-.8-.3-1.3-.4-.9-.3-1.3-.6c-.4-.2-.7-.6-1-1s-.4-.9-.4-1.6,0-.6.2-1c0-.3.4-.7.6-1,.3-.3.7-.5,1.1-.7s1-.3,1.7-.3,1.1,0,1.7.2c.5.2,1,.5,1.4,1l-1.2,1.1c-.2-.3-.4-.5-.8-.7s-.7-.3-1.1-.3-.7,0-1,.2c-.3,0-.5.2-.6.4-.2.2-.3.3-.3.5v.5c0,.4,0,.8.4,1s.6.4,1,.6c.4,0,.8.3,1.3.4s.9.3,1.3.5.7.5,1,.9.4.9.4,1.5,0,1-.3,1.4c-.2.4-.5.7-.8,1s-.7.5-1.2.6c-.5.2-.9.2-1.5.2s-1.3,0-2-.4c-.6-.2-1.1-.6-1.5-1.1l1.2-1h0Z"/>
    <path  d="M76.3,57.4c0-.4-.3-.7-.5-1-.3-.3-.6-.5-1.1-.7s-1-.3-1.7-.3h-3.8v10.5h1.5v-4.6h2.3c.7,0,1.3,0,1.7-.3.4-.2.8-.4,1.1-.7.3-.3.4-.6.5-1s.2-.7.2-1v-1h-.2ZM74.7,59.3c0,.2-.3.4-.5.5s-.5.2-.7.2h-2.7v-3.4h2.7c.3,0,.5,0,.7.2.2,0,.4.3.5.5s.2.5.2.9,0,.6-.2.9c0,0,0,.2,0,.2Z"/>
    <path  d="M92.3,61.2c.4,0,.8,0,1.1-.3.3-.2.6-.4.8-.6s.4-.5.5-.8.2-.6.2-1,0-.7-.2-1-.3-.7-.5-1c-.3-.3-.6-.5-1.1-.7s-1-.3-1.7-.3h-3.8v10.5h1.5v-4.6h1.6l2.7,4.6h1.8l-3-4.8h0ZM91.1,60.1h-1.9v-3.4h2.7c.3,0,.5,0,.7.2.2,0,.4.3.5.5s.2.5.2.9,0,.6-.2.9c0,.2-.3.4-.5.5s-.5.2-.7.2h-.8s0,.2,0,.2Z"/>
    <rect  x="107.9" y="55.5" width="1.5" height="10.5"/>
    <polygon  points="123 55.5 124.9 55.5 130.9 64.1 130.9 64.1 130.9 55.5 132.3 55.5 132.3 66 130.5 66 124.5 57.4 124.5 57.4 124.5 66 123 66 123 55.5"/>
    <path  d="M153.6,60.1v5.2c-.3.2-.6.3-.9.4-.3,0-.7.2-1,.3-.4,0-.7,0-1.1.2h-1c-.9,0-1.7,0-2.4-.4s-1.3-.7-1.8-1.2-.9-1.1-1.1-1.8c-.3-.7-.4-1.4-.4-2.1s.1-1.5.4-2.2c.3-.7.7-1.3,1.2-1.7.5-.5,1.1-.9,1.8-1.2s1.4-.4,2.3-.4,1.8,0,2.4.4,1.2.6,1.6,1l-1,1.1c-.4-.4-.9-.7-1.4-.9s-1-.2-1.6-.2-1.2,0-1.7.3-.9.5-1.3.9c-.4.4-.6.8-.8,1.3s-.3,1.1-.3,1.6.1,1.1.3,1.7c.2.5.5,1,.9,1.3.4.4.8.7,1.3.9s1.1.3,1.7.3h1.5c.5,0,.9-.2,1.2-.4v-2.9h-2.4v-1.3h3.9-.3v-.2Z"/>
    <path  d="M165.3,63.8c.3.4.6.7,1,.9s.8.3,1.3.3h.7c.2,0,.5-.2.7-.3.2,0,.4-.3.5-.5s.2-.5.2-.8-.1-.7-.4-.9c-.3-.2-.6-.4-1-.5s-.8-.3-1.3-.4-.9-.3-1.3-.6c-.4-.2-.7-.6-1-1s-.4-.9-.4-1.6,0-.6.2-1c.1-.3.4-.7.6-1,.3-.3.7-.5,1.1-.7s1-.3,1.7-.3,1.1,0,1.7.2c.5.2,1,.5,1.4,1l-1.2,1.1c-.2-.3-.4-.5-.8-.7-.3-.2-.7-.3-1.1-.3s-.7,0-1,.2-.5.2-.6.4c-.2.2-.3.3-.3.5v.5c0,.4.1.8.4,1s.6.4,1,.6c.4,0,.8.3,1.3.4s.9.3,1.3.5c.4.2.7.5,1,.9s.4.9.4,1.5,0,1-.3,1.4c-.2.4-.5.7-.8,1s-.7.5-1.2.6c-.5.2-.9.2-1.5.2s-1.3,0-2-.4c-.6-.2-1.1-.6-1.5-1.1l1.2-1h0Z"/>
  </g>
  <g >
    <g >
      <path d="M56.1,76.1h-1.1l-1.8-2.7v2.7h-1.1v-4.4h1.1l1.8,2.7v-2.7h1.1v4.4Z"/>
      <path  d="M57.9,72.6v.9h1.4v.8h-1.4v1h1.6v.9h-2.7v-4.4h2.7v.9h-1.6Z"/>
      <path  d="M64.4,71.7l-1.6,4.4h-1.3l-1.6-4.4h1.1l1.1,3.3,1.1-3.3h1.1Z"/>
      <path  d="M65.9,72.6v.9h1.4v.8h-1.4v1h1.6v.9h-2.7v-4.4h2.7v.9h-1.6Z"/>
      <path  d="M70.5,76.1l-.9-1.7h-.3v1.7h-1.1v-4.4h1.8c.3,0,.6,0,.9.2.2.1.4.3.6.5.1.2.2.4.2.7s0,.6-.2.8c-.2.2-.4.4-.7.5l1,1.8h-1.2ZM69.4,73.7h.7c.2,0,.3,0,.4-.1,0,0,.1-.2.1-.4s0-.3-.1-.4c0,0-.2-.1-.4-.1h-.7v1.1Z"/>
      <path  d="M76.6,71.7v.9h-1.8v.9h1.3v.8h-1.3v1.8h-1.1v-4.4h2.9Z"/>
      <path  d="M78.2,71.7v4.4h-1.1v-4.4h1.1Z"/>
      <path  d="M80.1,75.3h1.4v.8h-2.5v-4.4h1.1v3.6Z"/>
      <path  d="M85.2,71.7v.9h-1.2v3.6h-1.1v-3.6h-1.2v-.9h3.4Z"/>
      <path  d="M86.8,72.6v.9h1.4v.8h-1.4v1h1.6v.9h-2.7v-4.4h2.7v.9h-1.6Z"/>
      <path  d="M91.4,76.1l-.9-1.7h-.3v1.7h-1.1v-4.4h1.8c.3,0,.6,0,.9.2.2.1.4.3.6.5.1.2.2.4.2.7s0,.6-.2.8c-.2.2-.4.4-.7.5l1,1.8h-1.2ZM90.2,73.7h.7c.2,0,.3,0,.4-.1,0,0,.1-.2.1-.4s0-.3-.1-.4c0,0-.2-.1-.4-.1h-.7v1.1Z"/>
      <path  d="M94.3,72.6v.9h1.4v.8h-1.4v1h1.6v.9h-2.7v-4.4h2.7v.9h-1.6Z"/>
      <path  d="M99.5,72c.3.2.6.4.8.8.2.3.3.7.3,1.2s0,.8-.3,1.2c-.2.3-.5.6-.8.8s-.8.3-1.2.3h-1.7v-4.4h1.7c.5,0,.9,0,1.2.3ZM99.2,74.9c.2-.2.3-.5.3-.9s-.1-.7-.3-1c-.2-.2-.5-.3-1-.3h-.5v2.6h.5c.4,0,.7-.1,1-.3Z"/>
      <path  d="M105.8,71.7v.9h-1.2v3.6h-1.1v-3.6h-1.2v-.9h3.4Z"/>
      <path  d="M109.1,75.4h-1.7l-.3.8h-1.1l1.6-4.4h1.2l1.6,4.4h-1.1l-.3-.8ZM108.8,74.5l-.5-1.6-.5,1.6h1.1Z"/>
      <path  d="M114.1,73.8c-.1.2-.3.4-.5.5-.2.1-.5.2-.9.2h-.7v1.6h-1.1v-4.4h1.7c.4,0,.7,0,.9.2.2.1.4.3.5.5.1.2.2.5.2.7s0,.5-.2.7ZM113.1,73.5c.1,0,.2-.2.2-.4s0-.3-.2-.4c-.1,0-.3-.1-.5-.1h-.6v1.1h.6c.2,0,.4,0,.5-.1Z"/>
      <path  d="M114.9,76c-.1-.1-.2-.2-.2-.4s0-.3.2-.4c.1-.1.3-.2.5-.2s.3,0,.5.2c.1.1.2.3.2.4s0,.3-.2.4c-.1.1-.3.2-.5.2s-.3,0-.5-.2Z"/>
      <path  d="M121.9,76.1h-1.1l-1.8-2.7v2.7h-1.1v-4.4h1.1l1.8,2.7v-2.7h1.1v4.4Z"/>
      <path  d="M123.8,72.6v.9h1.4v.8h-1.4v1h1.6v.9h-2.7v-4.4h2.7v.9h-1.6Z"/>
      <path  d="M130.3,71.7l-1.6,4.4h-1.3l-1.6-4.4h1.1l1.1,3.3,1.1-3.3h1.1Z"/>
      <path  d="M131.8,72.6v.9h1.4v.8h-1.4v1h1.6v.9h-2.7v-4.4h2.7v.9h-1.6Z"/>
      <path  d="M136.4,76.1l-.9-1.7h-.3v1.7h-1.1v-4.4h1.8c.3,0,.6,0,.9.2.2.1.4.3.6.5s.2.4.2.7,0,.6-.2.8c-.2.2-.4.4-.7.5l1,1.8h-1.2ZM135.2,73.7h.7c.2,0,.3,0,.4-.1s.1-.2.1-.4,0-.3-.1-.4-.2-.1-.4-.1h-.7v1.1Z"/>
      <path  d="M142.8,71.7v.9h-1.2v3.6h-1.1v-3.6h-1.2v-.9h3.4Z"/>
      <path  d="M146.1,75.4h-1.7l-.3.8h-1.1l1.6-4.4h1.2l1.6,4.4h-1.1l-.3-.8ZM145.8,74.5l-.5-1.6-.5,1.6h1.1Z"/>
      <path  d="M151.9,76.1h-1.1l-1.8-2.7v2.7h-1.1v-4.4h1.1l1.8,2.7v-2.7h1.1v4.4Z"/>
      <path  d="M155.2,76.1l-1.5-2v2h-1.1v-4.4h1.1v1.9l1.5-1.9h1.3l-1.7,2.2,1.8,2.3h-1.3Z"/>
      <path  d="M158.2,72.6v.9h1.4v.8h-1.4v1h1.6v.9h-2.7v-4.4h2.7v.9h-1.6Z"/>
      <path  d="M162.7,76.1l-.9-1.7h-.3v1.7h-1.1v-4.4h1.8c.3,0,.6,0,.9.2s.4.3.6.5c.1.2.2.4.2.7s0,.6-.2.8c-.2.2-.4.4-.7.5l1,1.8h-1.2ZM161.6,73.7h.7c.2,0,.3,0,.4-.1,0,0,.1-.2.1-.4s0-.3-.1-.4c0,0-.2-.1-.4-.1h-.7v1.1Z"/>
      <path  d="M165.7,72.6v.9h1.4v.8h-1.4v1h1.6v.9h-2.7v-4.4h2.7v.9h-1.6Z"/>
      <path  d="M170.9,72c.3.2.6.4.8.8.2.3.3.7.3,1.2s0,.8-.3,1.2-.5.6-.8.8-.8.3-1.2.3h-1.7v-4.4h1.7c.5,0,.9,0,1.2.3ZM170.5,74.9c.2-.2.3-.5.3-.9s-.1-.7-.3-1-.5-.3-1-.3h-.5v2.6h.5c.4,0,.7-.1,1-.3Z"/>
    </g>
  </g>
</svg>