<?xml version="1.0" encoding="UTF-8"?>
<svg id="Layer_1" data-name="Layer 1" xmlns="http://www.w3.org/2000/svg" version="1.1" viewBox="0 0 224 87.7">
  <defs>
    <style>
      .cls-1 {
        fill: #00a0af;
        stroke-width: 0px;
      }
    </style>
  </defs>
  <path class="cls-1" d="M188.3,33.2c0-3.7,3-6.8,6.8-6.8h2.3c3.7,0,6.8,3,6.8,6.8v13.8h4.5v-13.8c0-6.2-5-11.2-11.2-11.2h-2.3c-6.2,0-11.2,5-11.2,11.2v13.8h4.5v-13.8ZM69,34.9v-1.7c0-6.2-5-11.2-11.2-11.2h-2.3c-6.2,0-11.2,5-11.2,11.2v3.3c0,6.2,5,11.2,11.2,11.2h2.3c2.5,0,4.9-.9,6.8-2.3v1.5h4.5v-12.1h0ZM64.6,36.6c0,3.7-3,6.8-6.8,6.8h-2.3c-3.7,0-6.8-3-6.8-6.8v-3.3c0-3.7,3-6.8,6.8-6.8h2.3c3.7,0,6.8,3,6.8,6.8,0,0,0,3.3,0,3.3ZM29.6,22h-2.3c-2.5,0-4.8.8-6.7,2.2v-11.2h-4.5v18.9c0,.4,0,.9,0,1.3v13.9h4.5c0-.1,0-.1,0-.1v-14.7c.5-3.3,3.3-5.8,6.7-5.8h2.3c3.7,0,6.8,3,6.8,6.8v13.9h4.5v-13.9c0-6.2-5-11.2-11.2-11.2M138.9,23v24h4.5v-24h-4.5ZM138.9,16.3v4h4.5v-4h-4.5ZM147.3,23v24h4.5v-24h-4.5ZM147.3,16.3v4h4.5v-4h-4.5ZM134.9,34.9v-1.7c0-6.2-5-11.2-11.2-11.2h-2.3c-6.2,0-11.2,5-11.2,11.2v3.3c0,6.2,5,11.2,11.2,11.2h2.3c2.5,0,4.9-.9,6.8-2.3v1.5h4.5v-12.1h0ZM130.4,36.6c0,3.7-3,6.8-6.8,6.8h-2.3c-3.7,0-6.8-3-6.8-6.8v-3.3c0-3.7,3-6.8,6.8-6.8h2.3c3.7,0,6.8,3,6.8,6.8v3.3ZM180.2,34.9v-1.7c0-6.2-5-11.2-11.2-11.2h-2.3c-6.2,0-11.2,5-11.2,11.2v3.3c0,6.2,5,11.2,11.2,11.2h2.3c2.5,0,4.9-.9,6.8-2.3v1.5h4.5v-12.1h0ZM175.7,36.6c0,3.7-3,6.8-6.8,6.8h-2.3c-3.7,0-6.8-3-6.8-6.8v-3.3c0-3.7,3-6.8,6.8-6.8h2.3c3.7,0,6.8,3,6.8,6.8v3.3ZM101.5,22.8v13.1c0,1.3-.4,2.5-1.1,3.6l-1.8,2.6c-.4.6-1.1.9-1.8.9h0c-.7,0-1.4-.3-1.8-.9l-1.8-2.6c-.7-1.1-1.1-2.3-1.1-3.6v-13.1h-4.5v13.1c0,1.3-.4,2.5-1.1,3.6l-1.8,2.6c-.4.6-1.1.9-1.8.9s-1.4-.3-1.8-.9l-1.8-2.6c-.7-1.1-1.1-2.3-1.1-3.6v-13.1h-4.5v13.1c0,2.2.7,4.4,2,6.2l1.8,2.6c1.3,1.8,3.3,2.8,5.4,2.8h0c2.2,0,4.2-1.1,5.4-2.8l1.6-2.2,1.6,2.2c1.3,1.8,3.3,2.8,5.4,2.8h0c2.2,0,4.2-1.1,5.4-2.8l1.8-2.6c1.3-1.8,2-3.9,2-6.2v-13.1h-4.5ZM174.4,56.3c0-.2,0-.3,0-.5,0-.1.2-.3.3-.4.1-.1.2-.2.4-.2.1,0,.3,0,.5,0s.3,0,.5,0c.1,0,.3.1.4.2.1.1.2.2.3.4,0,.1,0,.3,0,.5s0,.3,0,.5c0,.1-.2.3-.3.4-.1.1-.2.2-.4.2-.1,0-.3,0-.5,0s-.3,0-.5,0c-.1,0-.3-.1-.4-.2-.1-.1-.2-.2-.3-.4,0-.1,0-.3,0-.5M174.6,56.3c0,.1,0,.3,0,.4,0,.1.1.2.2.3,0,0,.2.2.3.2.1,0,.2,0,.4,0s.3,0,.4,0c.1,0,.2-.1.3-.2s.2-.2.2-.3,0-.3,0-.4,0-.3,0-.4c0-.1-.1-.2-.2-.3,0,0-.2-.2-.3-.2-.1,0-.2,0-.4,0s-.3,0-.4,0c-.1,0-.2.1-.3.2s-.2.2-.2.3,0,.3,0,.4M175.1,55.6h.5c.3,0,.5.1.5.4s0,.2-.1.3c0,0-.2,0-.3.1l.4.6h-.2l-.4-.6h-.2v.6h-.2v-1.4h0ZM175.3,56.2h.2s0,0,.1,0c0,0,0,0,.1,0,0,0,0,0,0,0,0,0,0,0,0-.1s0,0,0-.1c0,0,0,0,0,0,0,0,0,0,0,0,0,0,0,0-.1,0h-.3v.5Z"/>
  <path class="cls-1" d="M52.8,73h.8c.8,1.3,1.7,2.6,2.5,3.9h0v-3.9h.6v4.7h-.8c-.8-1.3-1.7-2.6-2.6-3.9h0v3.9h-.6c0-1.6,0-3.1,0-4.7"/>
  <path class="cls-1" d="M61,73h.6c.7,1.6,1.3,3.1,2,4.7h-.7c-.2-.4-.3-.8-.5-1.2h-2.2l-.5,1.2h-.7c.7-1.6,1.3-3.1,2-4.7M62.1,76c-.3-.7-.6-1.4-.9-2.2h0c-.3.7-.6,1.4-.9,2.2h1.7Z"/>
  <path class="cls-1" d="M66.1,73.6h-1.5v-.6h3.6v.6h-1.5v4.1h-.6v-4.1h0Z"/>
  <path class="cls-1" d="M71,73v2.9c0,.1,0,.3,0,.5,0,.2.1.3.2.4s.2.2.4.3.3.1.5.1.4,0,.5-.1.3-.2.4-.3.2-.3.2-.4c0-.2,0-.3,0-.5v-2.9h.6v3c0,.3,0,.5-.1.7s-.2.4-.4.6c-.2.2-.3.3-.6.4-.2,0-.4.1-.7.1s-.5,0-.7-.1c-.2,0-.4-.2-.6-.4-.2-.2-.3-.4-.4-.6s-.1-.5-.1-.7v-3h.6Z"/>
  <path class="cls-1" d="M76.6,73h1.6c.3,0,.5,0,.7.1.2,0,.3.2.4.3.1.1.2.3.2.4s0,.3,0,.5,0,.3,0,.4c0,.1-.1.3-.2.4,0,.1-.2.2-.4.3-.1,0-.3.1-.5.1.4.7.9,1.4,1.3,2.1h-.8c-.4-.7-.8-1.4-1.2-2.1h-.7v2.1h-.6c0-1.6,0-3.1,0-4.7M77.2,75.1h.8c.1,0,.2,0,.4,0s.2,0,.3-.1.2-.1.2-.2c0,0,0-.2,0-.4s0-.3,0-.4-.1-.2-.2-.2c0,0-.2,0-.3-.1-.1,0-.2,0-.4,0h-.8v1.5Z"/>
  <path class="cls-1" d="M83.6,73h.6c.7,1.6,1.3,3.1,2,4.7h-.7c-.2-.4-.3-.8-.5-1.2h-2.2l-.5,1.2h-.7c.7-1.6,1.3-3.1,2-4.7M84.7,76c-.3-.7-.6-1.4-.9-2.2h0l-.9,2.2h1.7Z"/>
  <path class="cls-1" d="M88.3,73h.6v4.1h2.1v.6h-2.7c0-1.6,0-3.1,0-4.7"/>
  <path class="cls-1" d="M98.1,73h.6c.7,1.6,1.3,3.1,2,4.7h-.7c-.2-.4-.3-.8-.5-1.2h-2.2l-.5,1.2h-.7c.7-1.6,1.3-3.1,2-4.7M99.3,76c-.3-.7-.6-1.4-.9-2.2h0c-.3.7-.6,1.4-.9,2.2h1.7Z"/>
  <path class="cls-1" d="M102.9,73h1.6c.3,0,.5,0,.7.1s.3.2.4.3c.1.1.2.3.2.4s0,.3,0,.5,0,.3,0,.4c0,.1-.1.3-.2.4,0,.1-.2.2-.4.3s-.3.1-.5.1c.4.7.9,1.4,1.3,2.1h-.8c-.4-.7-.8-1.4-1.2-2.1h-.7v2.1h-.6c0-1.6,0-3.1,0-4.7M103.5,75.1h.8c.1,0,.2,0,.4,0s.2,0,.3-.1.2-.1.2-.2c0,0,0-.2,0-.4s0-.3,0-.4-.1-.2-.2-.2c0,0-.2,0-.3-.1-.1,0-.2,0-.4,0h-.8v1.5"/>
  <path class="cls-1" d="M109.3,73.6h-1.5v-.6h3.6v.6h-1.5v4.1h-.6v-4.1h0Z"/>
  <path class="cls-1" d="M113.6,73h3v.6h-2.3v1.4h2.2v.6h-2.2v1.5h2.5v.6h-3.1v-4.7"/>
  <path class="cls-1" d="M119.3,76.8c.1.2.3.3.4.4.2,0,.4.1.5.1s.2,0,.3,0c.1,0,.2,0,.3-.2,0,0,.2-.1.2-.2,0,0,0-.2,0-.3s0-.3-.2-.4-.3-.2-.4-.2c-.2,0-.3-.1-.5-.2-.2,0-.4-.1-.5-.2-.2-.1-.3-.2-.4-.4-.1-.2-.2-.4-.2-.7s0-.3,0-.4c0-.2.2-.3.3-.4s.3-.2.5-.3c.2,0,.4-.1.7-.1s.5,0,.7.1c.2,0,.4.2.6.4l-.5.5c0-.1-.2-.2-.3-.3-.1,0-.3-.1-.5-.1s-.3,0-.4,0c-.1,0-.2.1-.3.2,0,0-.1.2-.1.2,0,0,0,.2,0,.2,0,.2,0,.4.2.5.1.1.3.2.4.3s.4.1.5.2c.2,0,.4.1.5.2.2,0,.3.2.4.4.1.2.2.4.2.7,0,.2,0,.4-.1.6,0,.2-.2.3-.3.5-.1.1-.3.2-.5.3-.2,0-.4,0-.6,0s-.6,0-.8-.2-.5-.3-.6-.5c.2-.1.3-.3.5-.4"/>
  <rect class="cls-1" x="124.4" y="73" width=".6" height="4.7"/>
  <path class="cls-1" d="M129.2,73h.6c.7,1.6,1.3,3.1,2,4.7h-.7c-.2-.4-.3-.8-.5-1.2h-2.2l-.5,1.2h-.7c.7-1.6,1.3-3.1,2-4.7M130.4,76c-.3-.7-.6-1.4-.9-2.2h0c-.3.7-.6,1.4-.9,2.2h1.7Z"/>
  <path class="cls-1" d="M134,73h.8c.8,1.3,1.7,2.6,2.5,3.9h0v-3.9h.6v4.7h-.8c-.9-1.3-1.7-2.6-2.6-3.9h0v3.9h-.6v-4.7h0Z"/>
  <path class="cls-1" d="M143.5,73h.6c.3,1.3.7,2.5,1,3.8h0c.4-1.3.7-2.5,1.1-3.8h.7c.4,1.3.7,2.5,1.1,3.8h0c.3-1.3.7-2.5,1-3.8h.6c-.4,1.6-.9,3.1-1.3,4.7h-.7c-.4-1.3-.7-2.6-1.1-3.8h0c-.4,1.3-.7,2.6-1.1,3.8h-.7c-.4-1.6-.9-3.1-1.3-4.7"/>
  <path class="cls-1" d="M153.2,73h.6c.7,1.6,1.3,3.1,2,4.7h-.7c-.2-.4-.3-.8-.5-1.2h-2.2l-.5,1.2h-.7c.7-1.6,1.3-3.1,2-4.7M154.4,76c-.3-.7-.6-1.4-.9-2.2h0c-.3.7-.6,1.4-.9,2.2h1.7Z"/>
  <path class="cls-1" d="M158.3,73.6h-1.5v-.6h3.6v.6h-1.5v4.1h-.6c0-1.4,0-2.7,0-4.1"/>
  <path class="cls-1" d="M162.7,73h3v.6h-2.3v1.4h2.2v.6h-2.2v1.5h2.5v.6h-3.1v-4.7h0Z"/>
  <path class="cls-1" d="M168.3,73h1.6c.3,0,.5,0,.7.1.2,0,.3.2.4.3s.2.3.2.4,0,.3,0,.5,0,.3,0,.4c0,.1-.1.3-.2.4,0,.1-.2.2-.4.3s-.3.1-.5.1c.4.7.9,1.4,1.3,2.1h-.8c-.4-.7-.8-1.4-1.2-2.1h-.7v2.1h-.6v-4.7h0ZM168.9,75.1h.8c.1,0,.2,0,.4,0,.1,0,.2,0,.3-.1s.2-.1.2-.2c0,0,0-.2,0-.4s0-.3,0-.4-.1-.2-.2-.2c0,0-.2,0-.3-.1-.1,0-.2,0-.4,0h-.8v1.5Z"/>
  <path class="cls-1" d="M53.9,63.8c.3.4.6.7,1,.9s.8.3,1.3.3.5,0,.7-.1.5-.2.7-.3c.2-.1.4-.3.5-.5.1-.2.2-.5.2-.8,0-.4-.1-.7-.4-.9-.3-.2-.6-.4-1-.5-.4-.1-.8-.3-1.3-.4s-.9-.3-1.3-.6c-.4-.2-.7-.6-1-1s-.4-.9-.4-1.6,0-.6.2-1c.1-.3.4-.7.6-1,.3-.3.7-.5,1.1-.7s1-.3,1.7-.3,1.1,0,1.7.2c.5.2,1,.5,1.4,1l-1.2,1.1c-.2-.3-.4-.5-.8-.7s-.7-.3-1.1-.3-.7,0-1,.2c-.3.1-.5.2-.6.4-.2.2-.3.3-.3.5,0,.2,0,.4,0,.5,0,.4.1.8.4,1s.6.4,1,.6c.4.1.8.3,1.3.4s.9.3,1.3.5.7.5,1,.9c.3.4.4.9.4,1.5s0,1-.3,1.4c-.2.4-.5.7-.8,1-.3.3-.7.5-1.2.6-.5.2-.9.2-1.5.2s-1.3-.1-2-.4c-.6-.2-1.1-.6-1.5-1.1l1.2-1Z"/>
  <path class="cls-1" d="M76.3,57.4c-.1-.4-.3-.7-.5-1-.3-.3-.6-.5-1.1-.7s-1-.3-1.7-.3h-3.8v10.5h1.5v-4.6h2.3c.7,0,1.3,0,1.7-.3.4-.2.8-.4,1.1-.7.3-.3.4-.6.5-1,.1-.4.2-.7.2-1,0-.3,0-.7-.1-1ZM74.7,59.3c-.1.2-.3.4-.5.5-.2.1-.5.2-.7.2-.3,0-.6,0-.8,0h-1.9v-3.4h1.9c.3,0,.6,0,.8,0,.3,0,.5.1.7.2.2.1.4.3.5.5s.2.5.2.9c0,.4,0,.6-.2.9Z"/>
  <path class="cls-1" d="M92.3,61.2c.4,0,.8-.1,1.1-.3.3-.2.6-.4.8-.6s.4-.5.5-.8c.1-.3.2-.6.2-1s0-.7-.2-1-.3-.7-.5-1c-.3-.3-.6-.5-1.1-.7s-1-.3-1.7-.3h-3.8v10.5h1.5v-4.6h1.6l2.7,4.6h1.8l-3-4.8ZM91.1,60.1h-1.9v-3.4h1.9c.3,0,.6,0,.8,0,.3,0,.5.1.7.2.2.1.4.3.5.5.1.2.2.5.2.9s0,.6-.2.9c-.1.2-.3.4-.5.5-.2.1-.5.2-.7.2-.3,0-.6,0-.8,0Z"/>
  <rect class="cls-1" x="107.9" y="55.5" width="1.5" height="10.5"/>
  <polygon class="cls-1" points="123 55.5 124.9 55.5 130.9 64.1 130.9 64.1 130.9 55.5 132.3 55.5 132.3 66 130.5 66 124.5 57.4 124.5 57.4 124.5 66 123 66 123 55.5"/>
  <path class="cls-1" d="M153.6,60.1v5.2c-.3.2-.6.3-.9.4-.3.1-.7.2-1,.3-.4,0-.7.1-1.1.2-.4,0-.7,0-1,0-.9,0-1.7-.1-2.4-.4-.7-.3-1.3-.7-1.8-1.2-.5-.5-.9-1.1-1.1-1.8-.3-.7-.4-1.4-.4-2.1s.1-1.5.4-2.2c.3-.7.7-1.3,1.2-1.7.5-.5,1.1-.9,1.8-1.2s1.4-.4,2.3-.4,1.8.1,2.4.4,1.2.6,1.6,1l-1,1.1c-.4-.4-.9-.7-1.4-.9-.5-.2-1-.2-1.6-.2s-1.2.1-1.7.3-.9.5-1.3.9c-.4.4-.6.8-.8,1.3-.2.5-.3,1.1-.3,1.6s.1,1.1.3,1.7c.2.5.5,1,.9,1.3.4.4.8.7,1.3.9.5.2,1.1.3,1.7.3s1,0,1.5-.1c.5,0,.9-.2,1.2-.4v-2.9h-2.4v-1.3h3.9Z"/>
  <path class="cls-1" d="M165.3,63.8c.3.4.6.7,1,.9s.8.3,1.3.3.5,0,.7-.1.5-.2.7-.3c.2-.1.4-.3.5-.5s.2-.5.2-.8c0-.4-.1-.7-.4-.9-.3-.2-.6-.4-1-.5-.4-.1-.8-.3-1.3-.4s-.9-.3-1.3-.6c-.4-.2-.7-.6-1-1s-.4-.9-.4-1.6,0-.6.2-1c.1-.3.4-.7.6-1,.3-.3.7-.5,1.1-.7s1-.3,1.7-.3,1.1,0,1.7.2c.5.2,1,.5,1.4,1l-1.2,1.1c-.2-.3-.4-.5-.8-.7-.3-.2-.7-.3-1.1-.3s-.7,0-1,.2-.5.2-.6.4c-.2.2-.3.3-.3.5,0,.2,0,.4,0,.5,0,.4.1.8.4,1s.6.4,1,.6c.4.1.8.3,1.3.4s.9.3,1.3.5c.4.2.7.5,1,.9.3.4.4.9.4,1.5s0,1-.3,1.4c-.2.4-.5.7-.8,1-.3.3-.7.5-1.2.6-.5.2-.9.2-1.5.2s-1.3-.1-2-.4c-.6-.2-1.1-.6-1.5-1.1l1.2-1Z"/>
</svg>