<?xml version="1.0" encoding="UTF-8"?>
<svg id="Layer_2" data-name="Layer 2" xmlns="http://www.w3.org/2000/svg" viewBox="0 0 259.39 395.58">
  <defs>
    <style>
      .cls-1 {
        fill: #fff;
      }
    </style>
  </defs>
  <g id="Capa_1" data-name="Capa 1">
    <g>
      <path class="cls-1" d="M227.73,105.44l-3.77,6.31-2.55-20.19-3.76,2.52c.4-6.34-7.77-13.33-12.63-17.05-1.27-.97-1.6-2.45-3.79-1.88-.08,3.47.31,6.97-.31,10.43-1.84,10.32-21.29,74.22-17.38,77.96,17.37-.2,30.52,13.99,34.29,30.09,10.62-2.06,11.2,6.88,16.27,10.88,2.45,1.94,6.19,1.69,8.21,4.45l-.72,3.8-12.62-3.11c-1.95-2.36-2.68-5.49-1.23-8.23l-16.37-2.6c-.2-22.15-22.5-37.15-42.3-26.46-2.93-.8-.15-7.91-6.07-10.42-4.66-1.98-8.56,1.13-13.53.32,1.34-8.14,6.76-5.49.5-13.76-6.77-8.93-18.74-10.27-28.98-7.88-14.23,3.33-15.63,14.13-11.92,26.69-8.98-2.76-12.24-7.45-18.75,2.08-1.15,1.68-1.28,5.27-2.64,6.21-3.14,2.18-9.34-2.84-15.11,1.3-5.03,3.62-2.85,12.05-5.92,13.07-3.95,1.3-5.9-3.55-10.62-3.19-1.99.15-10.01,2.63-11.32,3.91-1.87,1.83-1.88,6.53-3.73,7.61-1.93,1.13-14.88-5.3-21.46.02-1.98,1.6-3.02,5.72-5.96,6.68l-2.3.26-1.26-2.6-8.83,5.08c-5.05-7.65,7.46-7.88,11.08-10.07,1.26-.76,1.7-3.07,4.57-4.58,3.9-2.05,6.65-1.26,10.35-2.54,2.04-2.86-1.32-25.44-1.41-31.38-.45-31.84,6.77-77.65,32.23-99.16,2.47-2.09,11.33-6.78,11.94-8.27,1.26-3.06-8-2.02-9.44-1.86-13.18,1.41-16.87,6.83-20.85,18.93-4.89-1.98,1.19-8.13-.61-11.35-6.49,4.54-5.96,11.82-6.96,18.93-3.12-.63-.38-7.6-5.02-6.3-2.39,2.31-1.1,13.31-5.05,15.15-7.07-13.42,6.8-31.51,18.49-37.68,1.03-.54,8.42-3.68,8.9-3.75.61-.09,8.36,3.38,11.72,2.28,1.34-5.15-5.72-.42-6.29-3.77l11.35,1.89-5-5.21c-4.55-1.8-7.66,6.33-7.82-1.44-5.51-2.73-12.67-.59-15.56,4.74l-1.32-3.83,4.46-5c-6.98,1.17-16.42,3.04-17.68,11.35-3.77-1.7,1.73-6.92,2.54-8.82-.98-.81-10.73,5.38-13.26,5.73-8.56,1.18,4.39-9.26,6.52-10.59,8.13-5.07,18.13-6.33,27.57-5.26,9.04,1.03,23.43,10.07,28.38,17.68l-.22-8.57c-5.6-4.23-7.4-12.01-16.17-12.91-.65-1.77,5.03-1.06,2.51-3.75-1.55-1.66-6.7-.58-8.83-.03l2.98-2.38.8-2.64c-2.27-2.75-11.91-3.59-12.42-4.02-.91-.77-.55-7.36-6.51-6.12.23-7.38,15.67.25,19.79,2.31,10.27,5.13,23.97,22.51,24.28,33.82.07,2.56-3.67,8.86-.5,9.34,2.24.34,10.8-7.65,15.4-8.56,9.26-1.84,29.47-1.45,37.53,3.43.96.58-.34,2.11.17,2.59.65.61,12.89,11.33,4.96,8.84-4.19-1.31-10.75-7.08-16.45-7.52l.65,5c-6.46-1.24-4.85-8.94-13.89-6.29v5.03c-6.26-2.67-10.34-5.04-17.66-3.77l3.78,3.76-6.95.55-1.89,3.24c17.43,6.83,31.23,27.78,29.02,46.73l-2.53-6.3c-1.62-.95-1.05,5.03-3.14,1.25-1.8-3.27-7.16-21.5-8.13-22.17-1.45-1-3.49-.48-5.12-.56-.94.91,2.15,7.68-2.52,6.32-1.14-8.66-1.26-20.94-11.37-23.98,8.99,18.12,2.15,36.52-8.85,51.75-2.45-.24-1.28-6.47-.95-7.9.8-3.4,8.8-20.61,7.27-22.39l-5.03,3.78c-.63-3.99,3.41-5.9,3.77-9.57.4-4.04-1.77-17.37-6.29-19.47.74,4.15-1.39,4.52-5.05,5.07l2.29,1.42c1.62,2-11.15,26.95-12.76,31.67-10.15,29.67-11.71,61.4-3.26,91.74l7.96,1.27c4.95-12.13,11.41-12.59,23.23-13.92.91-8.95,6.32-12.27,15.18-11.33.84-21.06,17.77-25.67,36.13-23.81,15.03,1.52,17.11,8,24.34,18.54.61.89.79,3.59,2.8,1.64,1.09-1.06,6.63-25.18,7.95-29.31,5.13-16.15,10.21-36.62,22.36-48.34-1.53-1.64-4.96,1.69-6.18,2.65-6.32,4.99-14.54,14.9-14.02,23.24l-3.76-2.52-6.34,15.15c-4.47-2.05-2.17-7.71-1.23-11.35l2.5,2.51c-4.52-16.8,14.77-31.82,29.04-35.97-3.4-3.81-7.83-1.43-11.34.62l.85-3.18-2.69-1.84-11.51,6.24-2.44-2.47-4.42,3.78c-1.17-5.38,9.18-4.64,6.96-8.81-1.54,1.86-5.91.64-6.82,1.45-.42.38.11,2.45-.49,3.14-3.51,4.08-10,7.08-12.92,11.79-1.89-15.2,19.14-23.85,31.33-22.58,5.55.58,10.7,3.99,16,3.02-5.15-1.76-5.24-8.03-8.13-10.81-2.5-2.4-7.38-2.12-9.53-5.62l3.77.64c1.98-2.29-6.77-7.62-8.81-8.24-1.63-.5-3.41.75-5.01.05-1.13-.49-8.91-8.34-7.61-9.47,20.72-.63,40.44,17.13,41.65,37.88.92.97,15.11-3.74,18.37-3.84,10.84-.31,27.25,5.05,33.92,14.02.84,1.13,8,13.47,2.63,11.27-3.73-3.81-6.04-7.72-11.91-5.12l-3.27-6.22-.59,4.39-2.53.65c-1.95-11.66-8.63-4.93-12.07-5.3-1.12-.12-1.88-3.11-3.19-4.08-4.01-2.98-11.54-1.74-16.32-1.97,1.99,3.43,6.37,3.91,9.46,6.3,7.88,6.09,16.18,23.57,16.32,33.46.06,3.99-.34,14.37-5.59,14.52v-18.94ZM67.43,59.99c-3.08-2.35-17.9,13.55-16.4,15.14,4.23-4.46,4.8-.7,6.93-.47,4.86.54,6.28-11.66,9.47-14.67ZM51.01,76.39c-3.02-.68-2.04.54-2.81,1.65-3.66,5.3-5.85,11.5-8.54,17.28l8.16-3.78,3.18,3.79c-.14-6.26,6.46-10.55,3.79-16.4l-3.76,2.52-.02-5.05ZM198.7,78.93c-2.62-2.23-10.93,11.69-10.09,12.61l4.41-2.56c1.23,1.84-.14,3.21,3.15,2.56l2.53-12.62ZM187.34,99.14l-.02-3.8c-1.33-1.67-6.07,11.76-5.02,13.89l6.29-2.52.63,5.04,4.41-16.41-6.29,3.8ZM44.68,101.64h-1.83s-4.44-3.78-4.44-3.78l-3.79,18.94,8.21-7.56c.96-.22,1.24,5.02,4.4,3.77l2.53-15.14c-4.68-1.55-4.49,3.37-5.07,3.76ZM181.15,116.74l-2.63-3.73-2.53,17.67,10.16-4.42,3.71-13.24-8.71,3.72ZM43.43,133.22c.11-3.46,4.24-16.97-2.86-14.87-2.41.71-3.19,3.2-7.22.99l-1.27,13.87,5.85-3.69,5.5,3.7ZM183.55,131.96c-8.94,2.14-12.02,5.91-12.6,15.14,3.62-2.57,5.45-4.51,10.06-2.51l2.54-12.63ZM33.75,165.71c-2.05-6,2.66-13.6,9.08-11.42l1.86-1.53-1.44-12.4c-5.3-7.64-7.16,2.11-12.42-.84-.62,9.09.07,18.11.07,27.22,0,8.26.66,4.08,1.18,6.44,1.42,6.46-2.66,17.32,5.04,20.64-.02-7.5,5.73-10.27,12.64-10.11-3.14-8.18-2.31-16.98-7.6-23.97l-5.66,8.82c.09-1.28-2.67-2.64-2.74-2.86ZM178.5,150.9c-4.21,1.29-5.28,3.57-10.08,1.26-.71,4.84.58,8.4,3.72,11.99l6.3-.7.06-12.55Z"/>
      <path class="cls-1" d="M18.54,281.48c-.39,2.63-2.94,8.27-5.54,4.54-1.03-1.48,1.82-28.84,2.55-33.08,2.76-1.85,10.45,8.91,12.5,11.01,3.96-4.37,6.92-11.62,13.52-12.02.15,2.88.89,5.55,1.05,8.47.26,4.83.69,18.78-.31,22.83-.8,3.24-3.47,5.61-5.27,1.73-1.34-2.89,2.23-19.87.51-25.01-6.89,7.92-9.17,15.14-17.01,2.49-.56-.98-2.01.9-2.01,1.02,0,5.3.72,13.17,0,18.03Z"/>
      <path class="cls-1" d="M69.62,314.54c.16-1.48,1.59-9.25,3.99-7.51l1.01,15.03h16.03c.8-.79-1.77-17.18,3.99-17.03,1.24,1.2,1.62,31.39,1.01,34.56-.43,2.26-2.78,3.5-5.01,3.5v-17.03l-15.81,1.22c-1.77,5.23,2.1,11.58-2.73,15.8l-2.49-1.5c.69-8.64-.94-18.59,0-27.05Z"/>
      <path class="cls-1" d="M229.85,281.98l10-8c1.41,1.21-.64,6.69-1.55,7.97-1.05,1.48-3.52,2.04-3.51,2.59.04,2.14,3.47,5.47,1.05,9.46-3.09-1.76-5.75-2.9-5.01-7.01-1.89.58-.66,2.27-3.71,2.8-3.73.64-12.26.2-13.15-4.45-.66-3.41,7.05-8.92,8.35-11.44s-2.02-12.47,5.15-14.74c6.55-.37,7.77,8,5.59,12.51-1.96,4.07-5.57,3.7-3.21,10.31ZM229.84,263.94h-2.99c-.05,2.85-1.26,5.24.05,7.99l2.95.03v-8.02ZM224.83,277.97c-4.41-.61-5.73,4.57-6,7.99l8.02-.99-2.02-7Z"/>
      <path class="cls-1" d="M117.69,370.13l10.49-1.01c2.75,5.71-7.24,3.82-9.53,5.51-.79.58-.72,2.2-1.36,3.18-.35.54-1.55.3-1.59.37-.35.58,1.47,1.43,1.54,2.42.22,2.95-.53,17.32-4.66,10.91-1.74-2.7-.26-22.37,2.1-25.9-2.34.28-2.25-7.62-1.58-8.57,2.49-1.12,20.69-3.69,19.6,1.56-2.29,3.24-13.14.49-15.03,1.99l.02,9.54Z"/>
      <path class="cls-1" d="M116.34,323.4c4.49,4.3,3.79,13.86,5.36,19.69l-3.02.51-3.48-4.52c-14.39,15.24-17.16-11.88-4.79-17.9,2.05-.58,4.47.82,5.94,2.22ZM108.9,328.29c-1.81,1.77-2.17,10.52,1.25,9.78,3.96-2.73,4.58-7.47,4.52-12.01-1.47,1.07-4.74,1.23-5.77,2.23Z"/>
      <path class="cls-1" d="M145.72,289.99c-2.54-.88-4.32-2.07-4.01-5.01h-1.48c-9.12,10.24-15.77-1.01-10.73-10.72.81-1.55,5.53-6.78,6.93-7.17,9.97-2.75,8.68,17.24,9.28,22.89ZM132.71,283.98c5.52.31,9.49-7.98,5.49-12.01-5.22,1.83-6.04,7.15-5.49,12.01Z"/>
      <path class="cls-1" d="M212.8,341.08c-8.05,8.95-16.36,1.41-12.24-8.76,1.66-4.09,6.67-4.91,8.94-8.27,10.08-2.08,7.01,13.91,9.17,19.58-1.87,3.05-5.75.08-5.87-2.54ZM211.81,328.07c-5.34,1.44-9.84,8.19-5.49,13.01,2.76.59,7.04-10.38,5.49-13.01Z"/>
      <path class="cls-1" d="M148.72,322.05c.89,1.05-1.57,13.15-2.28,15.24-3.49,10.34-6.1,6.18-9.75-1.21l-2.05.61c-.21,1.96-3.72,7.56-5.98,5.93-1.48-1.07-7.44-22.17.12-17.98l.91,10.93,1.99.5c.75-2.9,2.58-5.83,5.54-6.76l5.48,5.76c.59-.46,2.97-16.63,6.02-13.02Z"/>
      <path class="cls-1" d="M228.83,358.11v9.01c3.32-.28,5.97.94,8,3.51.04,2.34-7.68.48-8.87,1.63-2.07,6.82.3,14.11-3.04,20.48-.4.76-.29,3.11-2.08,1.43-2.25-2.12-.23-19.43.98-23.03l-8.02-.52,1.07-4.44,5.99.54,2.49-7.59,3.47-1.03Z"/>
      <path class="cls-1" d="M171.71,345.03l-3.97.63-.98-4.58c-3.64.38-3.63,4.1-7.77,3.8-9.43-.7-6.37-9.93-2.24-15.33.29-.38,4.4-4.42,4.72-4.49,12.52-2.69,8.06,12.68,10.25,19.96ZM157.75,341.09c4.77,4.14,12.86-21.23,2.44-10.07-2.87,3.08-3.68,6.04-2.44,10.07Z"/>
      <path class="cls-1" d="M165.74,288.99c-2.17.33-2.46-.86-2.95-2.56-.6-2.07-1.13-15.41.04-16.39l3.84.02.58,2.9c12.77-12.03,12.45,6.58,13.48,15.44l-2.44,1.59c-5.35-1.85-2.1-14.43-5.05-15.02-5.17-1.03-6.52,10.67-7.5,14.02Z"/>
      <path class="cls-1" d="M94.63,266.96l1.04,4c1.29.94,7.23-6.53,10.46-.94,1.43,2.47,1.15,16.3-.97,16.96-6.72,2.12-.65-11.86-4.01-14.03-6.68,2.52-6.14,9.28-7.51,15.03-1.39.28-1.65-.05-2.43-1.06-2.76-3.54-.39-15.16.38-19.53l3.04-.44Z"/>
      <path class="cls-1" d="M49.87,285.69c-8.96-7.4,1.88-26.35,11.69-17.18,7.66,7.16-3.06,24.31-11.69,17.18ZM57.33,270.23c-.24-.29-2.59-1.37-2.71-1.28-1.8,4.87-4.01,8.48-3.02,14.03,7.21,2.16,8.9-8.91,5.73-12.75Z"/>
      <path class="cls-1" d="M190.58,382.93c-2.26,1.32-7.44-1.18-7.8-.77-.56,4.88,3.78,6.07,6.51,9.01.76.3,1.14-5.07,3.49-1.49.63,4.67-3.12,2.45-3.81,2.81-.52.27.62,2.69-3.16,1.17-11.36-4.58-8.86-22.38.95-24.15,3.33-.6,7.8,5.65,6.88,8.91-.07.26-2.82,4.38-3.06,4.52ZM189.78,379.14l-1.52-5-4.48,2.52,6,2.48Z"/>
      <path class="cls-1" d="M81.65,266.96c1.92-1.81,2.77,2.81,2.85,3.6.34,3.4,1.78,19.12-3.35,17.42l-2.01-2.99c-11.08,12.23-13.42-15.01-8.54-17.56,5.91-3.07.54,13.32,2.5,15.57l2.94.9c4-1.89,4.43-15.83,5.61-16.94Z"/>
      <path class="cls-1" d="M251.65,374.35c.89,1.57.39,4.73-1.28,5.79-1.77-2.22-3.47-3.5-6.5-2.98-2.8,2.74,7.97,5.3,7.94,10.52-1.87,8.9-14.64,10.3-13.94-.5,1.03-1.15,7.96,6.21,9,.51-2.65-3.39-8.61-4.14-8.74-9.21-.17-6.23,11.37-7.93,13.53-4.12Z"/>
      <path class="cls-1" d="M137.03,390.86c-3.96-4.33-2.4-11.69.84-16.06,7.18-9.68,17.62,5.02,11.08,15.09-2.68,4.13-8.6,4.59-11.92.96ZM143.22,375.16c-2.42,2.62-5.54,9.06-3.4,12.31,5.6,8.53,9.64-8.32,3.4-12.31Z"/>
      <path class="cls-1" d="M116.68,264.95c-.66-.65-8.66,1.76-8.01-3,1.96-.05,5.89.24,7.41-.89.6-.45,3.3-12.57,5.75-.26l8.88,1.66c-.07,3.99-7.63,2.14-10.03,2.49l-.94,22.6-3.06.44v-23.04Z"/>
      <path class="cls-1" d="M213.81,375.14l-8-1c1.1,5.21,6.63,8.31,6.48,14.14-.3,11.47-14.85,8.38-12.49-2.12l5.61,4.96,4.23-4.31c-.16-4.09-10.78-5.78-7.08-14.42,2.47-5.77,12.66-3.95,11.25,2.75Z"/>
      <path class="cls-1" d="M195.79,275.96l-7-2.99c-1.34,1.16,5.66,6.79,6.41,8.09,2.29,3.97,1.37,5.92-.57,9.73-6,.44-9.67.55-8.84-6.81,1,1.04,6.6,3.98,6.01.49-.54-3.21-6-5.51-6.82-8.21-3.41-11.23,11.98-11.32,10.8-.3Z"/>
      <path class="cls-1" d="M170.53,372.38c2.21,2.25,1.83,6.29.22,8.77-2.65.2-2.51-8.1-4.97-6-.3.25-3.39,6.07-3.6,6.93-.91,3.84.26,7.79-1.38,11.52l-1.97.48c-3.51-1.89-2.02-17.65-1.59-21.96,1.25-2.33,2.86,1.73,4.15,1.96s5.22-5.7,9.14-1.7Z"/>
      <path class="cls-1" d="M231.79,324.09c.14,1.72.27,3.95,2.55,3.98.4,0,3.44-5.01,6.52-4.01l-2,2.99,1.94.04.06,1.95c-7.33,1.94-6.35,10.46-8.57,16.09l-3.85-.93c-.83-.6-.98-10.03-.6-11.48.18-.71,5.18-1.19-.04-3.21l1.06-5.46,2.94.04Z"/>
      <path class="cls-1" d="M246.85,345.09c-.58.38-3.02.14-3.48-1.02l-1.51-20c8.2-1.58,6.47,20.06,4.99,21.03Z"/>
      <path class="cls-1" d="M180.78,323.05v18.53c0,.54-1.42,2.24-1.06,3.47l-2.93.04c-1.18-5.83-1.99-13.4.49-19.03.71-1.62,1.29-3.37,3.5-3.01Z"/>
      <path class="cls-1" d="M192.79,341.58l-2.49,1.5c-5.37-4.2.05-12.04-1.51-18.02,1.12-.42,4,.43,4,1.5v15.03Z"/>
      <path class="cls-1" d="M154.75,289.99l-2-4.55,1.5-16.48c2.36.02,2.3,1.72,2.52,3.46.59,4.68,1.37,14.13-2.02,17.57Z"/>
    </g>
  </g>
</svg>