<?xml version="1.0" encoding="UTF-8"?>
<svg id="Layer_2" data-name="Layer 2" xmlns="http://www.w3.org/2000/svg" viewBox="0 0 202.77 321.74">
  <defs>
    <style>
      .cls-1 {
        fill: #fff;
      }
    </style>
  </defs>
  <g id="Capa_1" data-name="Capa 1">
    <g>
      <path class="cls-1" d="M97.1,0c4.97,21.42,15.54,36.27,39.41,26.56l16.76-9.41c-9.52,28.82,11.32,40.66,37.13,33.33-6.97,9.65-18.19,18.31-15.95,31.67,2.02,12.05,18.06,18.41,28.33,21.66-1.77,2.64-6.32,2.26-9.47,3.36-18.97,6.65-25.92,18.02-14.71,36.54,2.77,4.58,7.15,7.95,9.91,12.45-7.35-1.08-15.05-5.41-22.53-5.33-18.21.18-21.48,22.19-15.55,35.81-1.65.43-1.9-.68-2.86-1.42-3.92-3.01-6.9-7.64-11.7-10.19-19.01-10.08-30.48,11.75-32.09,27.8l-7.78-18.39c-8.43-11.81-16.53-14.9-29.26-6.75-4.68,3-7.54,7.35-11.5,10.4-.95.73-1.21,1.85-2.86,1.42,1.66-10.97,7.27-24.24-3.34-32.37-9.57-7.34-22.44-3.66-32.83,0,3.31-8.65,15.23-14.39,16.13-24.4,1.57-17.48-20.01-22.23-32.33-26.55,5.84-2.68,11.9-2.92,17.66-6.15,14.92-8.39,16.79-20.36,7.52-34.26-.93-1.39-10.04-10.53-8.98-11.48,9.45.99,21.58,6.17,30.41.43,12.51-8.14,1.22-26.73,1.01-38.52,6.65,3.74,17.87,15.57,25.21,16.23,14.28,1.29,25.88-19.42,22.39-31.96l1.88-.46ZM144.7,29.52c-12.07,8.16-30.38,10.01-41.3-1.06-1.08-1.09-4.8-7.93-6.28-6.56-3.12,11.6-16.59,19.86-28.6,16.69-1.9-.5-10.97-7.7-11.39-7.17,6.93,19.33-4.79,33.98-24.76,32.38,4.16,11.54,8.47,20.73,0,31.89l-11.42,10.46c14.77,7.12,23.9,24.89,12.39,39.05-.01,1.33,8.63,1.39,10.46,1.89,10.93,3.01,19.02,14.92,18.08,26.19l9.31-5.44c7.71-2.82,15.64-.63,22.02,4.1,2.19,1.62,8.84,10.13,9.99,9.88,9.26-15.16,22.82-19.35,38.64-10.44-.98-17.02,12.57-29.21,29.51-26.67-8.41-17.02-5.03-33.61,13.33-41.41-16.64-7.94-21.29-23.16-13.09-39.76.86-1.74,2.84-2.45,2.62-4.52-16.75-.33-32.05-11.2-29.52-29.52Z"/>
      <path class="cls-1" d="M51.16,224.05c1.37,1.14,4.84,7.93,1.2,7.8,4.74,5.12-3,12.98-7.91,14.96-2.66,1.07-9.65.09-10.72,1.67-1,3.22,2.95,19.41-2.75,18.15l-2.42-5.21-.46-34.78c4.14-5.42,18.42-6.42,23.06-2.58ZM33.33,228.54v17.14c2.52.82,1.56-1.47,2.58-1.88,4.23-1.69,11.06-1.36,12.44-7.37,2.83-12.37-6.61-12.19-15.02-7.89Z"/>
      <path class="cls-1" d="M46.37,278.25c19.31-5.86,24.47,46.44,1.96,43.36-18.91-2.59-12.88-40.04-1.96-43.36ZM54.89,315.82c2-2,3.48-6.17,3.89-8.96,1.07-7.26,1.12-15.41-4.13-21.08-5.42-5.85-10.55-2.26-12.7,4.24-1.56,4.71-1.79,17.92.5,22.25,2.1,3.97,8.86,7.14,12.44,3.55Z"/>
      <path class="cls-1" d="M119.95,274.73c-.11.38-2.52,2.62-2.84,2.38-1.35-7.34-3.3-15.59-.96-22.84l-7.63-2.4c.04-3.11,5.48-3.6,7.62-3.33-1.97-5.73,1.84-31.32,9.97-30.54,3.4.33,7.9,10.61,1.94,11.5l-2.4-5.71c-2.53-1.84-4.45,10.33-4.63,12.02-.44,4.09.42,8.26-.69,12.3,2.52,4.89,7.56-1.89,11.03,2.81-2.65,3.84-7.4,2.04-11.4,2.38-1.02,5.61,1.38,16.58,0,21.43Z"/>
      <path class="cls-1" d="M75.01,264.51c-3.29,3.76-5.32,1.54-5.53-2.98l-1.86-.6c-1.22,4.79-6.96,6.55-10.97,3.81-10.95-7.47,3.54-25.94,11.23-23.66,5.08,1.5,4.29,18.7,7.13,23.44ZM63.01,244.87c-.14.1.56,1.46-.1,2.23-4.41,5.16-8.6,8.33-1.5,14.75,4.6-4.66,6.59-11.77,5.23-18.08-1.01.77-3.05.68-3.62,1.1Z"/>
      <path class="cls-1" d="M113.69,305.05c.1-.3,1.19-.35,1.26-.51.21-.5-.96-2.05-.03-4.31s5.81-6.79,8.35-7.02c12.55-1.15,5.51,15.48,11.89,21.51-3.2,3.24-5.23-.73-7.12-3.32-5.14,10.06-17.9,3.93-14.35-6.35ZM120.26,300.26c-2.43,2.68-3.12,7.35-.84,10.23,6.91,8.74,10.94-21.37.84-10.23Z"/>
      <path class="cls-1" d="M167.54,249.49c-4.5.5-3.48-7.84-7.14-7.33-4.56.64-7.78,15.34-2.7,16.75,2.41.67,16.95-7.42,11.8.63-7.81,12.2-27.48.12-16.42-16.42,6.32-9.45,18.41-4.97,14.46,6.38Z"/>
      <path class="cls-1" d="M104.48,293.54c5.65,5.34-1.31,15.92-9.27,11.18-1.09,9.59,7.21,5.69,13.32,5.72l-.15,3.67c-12.86,6.75-23.73-3.07-16.56-16.1,2.33-4.23,8.5-8.39,12.66-4.47ZM101.86,300.91c.43-4.45-4.43-6.21-6.65-2.36-.6,2.86,4.95,2.54,6.65,2.36Z"/>
      <path class="cls-1" d="M138.99,294.25c.1-.14,2.99-1.17,3.36-.03l1.88,5.74c4.56-6.49,11.73-8.75,14.49.73.68,2.33,2.09,13.76-1.19,14.5-6.82-2.23-.34-12.01-5.67-16.14-8.26,3.15-5.07,12.15-10.48,17.08-.32,0-2.38-2.95-2.38-3.31,0-2.65-.54-17.81,0-18.57Z"/>
      <path class="cls-1" d="M91.39,247.58c-.18-.23,1.53-3.17-1.43-4.79-9.4,3.36-9.91,21.44,2.15,16.45,1.87-.77,2.69-3.34,4.99-3.08,1.82,2.11-3.85,7.92-5.95,8.79-12.83,5.33-16.89-19.13-5.82-24.86,5.57-2.88,11.62,1.11,9.42,7.52-.43,1.14-3.26.1-3.37-.04Z"/>
      <path class="cls-1" d="M74.5,311.19c2.46,2.63,10.4-2.53,11.18-1.7.62,5.62-4.8,8.33-9.91,7.57-11.26-1.67-6.12-27.01,5.43-23.57,3.8,1.13,4.94,6.26,1.16,8.36l-3.9-4.71c-3.31-.7-6.87,10.93-3.95,14.04Z"/>
      <path class="cls-1" d="M139,261.87c-1-3.43-3-21.94,3.31-19.99,2.9.9.56,6.23.49,8.1-.15,4.22,1.91,12.8-3.8,11.89Z"/>
      <path class="cls-1" d="M106.63,241.87v18.57c0,.2-.91,4.16-2.37,3.32-3.47-1.64-4.47-21.55,2.37-21.89Z"/>
      <path class="cls-1" d="M108.53,228.55c.49,2.76-1.61,4.04-3.33,5.69l-2.38-4.24,5.71-1.45Z"/>
      <path class="cls-1" d="M143.66,237.01c-.44.7-3.98,1.62-4.61-.44-2.03-6.61,7.58-4.28,4.61.44Z"/>
      <path class="cls-1" d="M145.84,129.66c-.11.18.75,1.52-.05,3.21-9.48,20-45.06,25.93-64.16,18.32-45.76-18.24-46.28-75.59-4.98-98.8l1.41,1.89c-.78-3.41,2.51-3.73,5.23-4.77,45.69-17.44,91.17,38.34,66.04,77.49-1.2,1.87-3.29,2.35-3.49,2.66ZM99.74,51.66c-38,1.86-62.6,49.96-36.45,79.77,34.28,39.07,99.16,7.13,83.8-44.79-5.57-18.82-27.44-35.96-47.36-34.98Z"/>
    </g>
  </g>
</svg>