<?xml version="1.0" encoding="UTF-8"?>
<svg id="Layer_2" data-name="Layer 2" xmlns="http://www.w3.org/2000/svg" viewBox="0 0 181.49 245.83" fill="currentColor">
    <g >
      <path  d="M73.44,29.2s-9.48,0-13.24,6.92c-4.06,6.92-13.54,24.83-13.54,24.83l29.8,14.9,15.2-27.99,9.03,14.3-13.09,8.73,36.57-1.96,16.86-30.85-13.24,7.37-6.92-10.69s-2.86-5.42-10.38-5.57h-37.02"/>
      <path  d="M111.52,81.42l16.4,27.54-17.31-.45-.6-15.35-18.06,30.85,12.34,10.38,6.47,5.12h13.09s6.17.75,10.38-5.42c4.06-6.02,19.87-30.25,19.87-30.25,0,0,5.12-7.68,1.05-14.45-4.06-6.77-14.6-24.23-14.6-24.23l-29.05,16.1v.15Z"/>
      <path  d="M23.03,70.58l12.79,7.83-6.62,10.84s-3.61,4.97-.3,11.44c3.31,6.32,17.16,31.6,17.16,31.6,0,0,4.36,8.13,12.64,8.13h28.89v-32.36h-32.81l9.03-14.3,14.15,7.07-18.81-30.25H23.03Z"/>
      <path  d="M90.75,174.57C40.78,174.57,0,135.44,0,87.29S40.63,0,90.75,0s90.75,39.13,90.75,87.29-40.63,87.29-90.75,87.29M90.75,15.8c-40.93,0-74.19,32.06-74.19,71.48s33.26,71.48,74.19,71.48,74.19-32.06,74.19-71.48S131.68,15.8,90.75,15.8"/>     
    </g>
</svg>