<?xml version="1.0" encoding="UTF-8"?>
<svg id="Layer_2" data-name="Layer 2" xmlns="http://www.w3.org/2000/svg" viewBox="0 0 241.8 241.8" fill="currentColor">
  <defs>
    <style>
      .cls-1 {
        fill: #fff;
      }
    </style>
  </defs>
  <g id="_àð_1" data-name="˜àð_1">
    <g>
      <circle cx="120.9" cy="120.9" r="120.9"/>
      <path class="cls-1" d="M165.61,79.57c-6.75-4.73-11.68-11.87-13.54-20.16-.39-1.74-.65-3.52-.76-5.35v-.63h-23.02v91.85c0,11.07-9.01,20.08-20.08,20.08-3.63,0-7.03-.98-9.97-2.67-6.03-3.47-10.11-9.96-10.11-17.41,0-11.07,9.01-20.08,20.08-20.08,1.86,0,3.66.27,5.4.76v-23.43c-1.78-.22-3.58-.34-5.4-.34-23.76,0-43.1,19.33-43.1,43.1,0,14.16,6.86,26.74,17.44,34.6,7.17,5.33,16.05,8.5,25.66,8.5,23.76,0,43.1-19.33,43.1-43.1v-47.68c8.89,6.56,19.75,10.59,31.52,11v-23.03c-6.38-.37-12.28-2.54-17.22-5.99Z"/>
    </g>
  </g>
</svg>