<?xml version="1.0" encoding="UTF-8"?>
<svg id="Layer_2" data-name="Layer 2" xmlns="http://www.w3.org/2000/svg" viewBox="0 0 268.89 273.01">
  <defs>
    <style>
      .cls-1 {
        fill: #fff;
      }
    </style>
  </defs>
  <g id="Capa_1" data-name="Capa 1">
    <g>
      <path class="cls-1" d="M176.75,29.41c2.88.62,5.27-1.19,7.99-1.47,18.53-1.9,32.7,11.65,32.65,29.96,17.37-5.61,35.74,11.39,39.55,27.65,10.86,46.38-41.15,50.15-72.95,50.73-22.8.42-46.21.34-69.16,0-21.71-.33-48.56-.21-69.82-2.33-33.78-3.38-52.73-41.12-23.02-65.26,2.87-2.33,8.19-6.5,11.87-5.4-1.98-27.82,28.59-54.5,55.7-43.81,1.43.57,7.2,4.49,8.03,3.86,15.15-32.4,70.98-31.7,79.17,6.07ZM95.56,29.98c-19.37-15.88-47.15-4.2-54.4,18.71-1.67,5.28-.15,13.71-1.56,16.88-.8,1.8-12.48,5.23-16.11,8.47-16.59,14.83-14.45,37.77,5.24,48.52,17.36,9.48,49.35,6.89,69.28,7.51,33.04,1.03,68.35,2.4,101.38.8,23.8-1.15,55.36-7.51,53.22-37.92-1.01-14.35-14.07-31.54-29.45-30.42-3.06.22-10.27,3.56-11.15-1.17-.93-5.01.47-8.33-1.92-14.21-6.32-15.51-22.53-15.07-36.47-11.87-3.91-4.87-4.38-11.6-7.65-16.96-3.41-5.59-10.37-10.3-16.73-11.68-21.51-4.68-42.61,3.7-50.11,25.15-.62.45-2.95-1.31-3.56-1.81Z"/>
      <path class="cls-1" d="M187.57,222.49c.99-3.3,15.24-3.49,17.69-.76,5.58,6.22.41,14.05-3.81,19.18l8.33,16.89-2.24,2.37c-3.45.63-10.09-18.32-13.58-17.58-3.39,2.85-.2,7.93-1.29,11.36-.48,1.51-1.97,1.33-1.99,1.84-.05,1.64,1.85,6.85-3.11,2.97v-36.27ZM192.47,238.66c14.26,0,15.36-20.44-1.1-13.29l1.1,13.29Z"/>
      <path class="cls-1" d="M16.08,226.9c-4.33,1.51-12.42,2.58-13.71-2.93,8.77-2.13,17.9-3.28,27-2.98,1.57.05,7.81-.07,8.26,1.51,1.77,6.17-12.81,1.7-15.24,4.34-.85,1.23-.56,16.28-.47,19.22.19,5.86,4.51,19.87-5.45,10.78l-.39-29.93Z"/>
      <path class="cls-1" d="M77.96,255.46c-2.03,6.49,2.28,11.72-3.1,17.5-.66.36-1.51-1.07-1.71-1.69-.73-2.32-1.19-12.4-1.27-15.4-.07-2.65.23-18.25,1.12-19.08,3.32.46,7.9-2.03,10.81-1.51,11.83,2.09,6.01,22.67-5.86,20.18ZM85.53,239.78c-2.78-1.75-4.9-.17-7.54,1l-.16,11.6c5.95-3.35,9.43-4.65,7.7-12.6Z"/>
      <path class="cls-1" d="M187.06,145.48l1.82,1.26c.32,1.17.11,2.25-.26,3.38-1.56,4.83-7.5,17.57-10.11,22.15-3.33,5.86-6.75,2.3-5.49-2.41.59-2.21,8.7-16.64,10.44-19.52,1.04-1.73,2.06-3.5,3.6-4.86Z"/>
      <path class="cls-1" d="M60.92,235.91c9.57-.83,10.97,23.75-2.86,21.83-10.7-1.48-9.65-20.75,2.86-21.83ZM56.41,252.23l3.15.96c4.02-2.47,4.5-8.36,1.05-11.55-6.1.36-4.77,6.18-4.19,10.59Z"/>
      <path class="cls-1" d="M149.35,257.28c-5.76,1.07-4.66-3.61-7.35-6.85-.61-.29-1.74,8.26-8.42,6.47-1.57-.42-1.53-1.69-2.25-2.21-.63-.45-1.89-.21-2.3-.56-.28-.24-2.28-6.72-2.29-7.11-.02-3.39,5.79-9.9,8.84-10.88,10.3-3.27,9.38,9.68,11.51,16.05.67,2,2.27,3.07,2.25,5.09ZM137.58,253.37l3.94-11.33c-.02-4.19-8.2-2.2-8.76,3.06-.5,4.71-.08,7.42,4.82,8.26Z"/>
      <path class="cls-1" d="M136.75,144.71c.23,2-.26,3.75-.92,5.6-1.59,4.42-6.28,14-8.66,18.22-1.56,2.78-1.85,4.81-5.66,3.71l-.57-4.51c4.1-5.63,6.68-13.22,10.29-18.95,1.21-1.92,2.97-4.42,5.52-4.07Z"/>
      <path class="cls-1" d="M209.69,180.81c-4.25-1.07-3.66-3.39-2.43-6.66,1.7-4.51,7.25-12.59,10.24-16.65,1.35-1.83,7.45-8.89,5.68-2.01-1.93,7.5-10.82,17.59-13.48,25.32Z"/>
      <path class="cls-1" d="M4.01,194.52c-1.95-1.14-1.2-4.94-.4-6.73,2.84-6.38,7.22-11.68,10.82-17.14.32-.48.3-4.34,2.92-5.2,1.08.76,1.21,1.39,1.2,2.66,0,2.96-6.21,13.3-7.87,16.77-.96,2.01-2.98,11.78-6.67,9.63Z"/>
      <path class="cls-1" d="M62.26,167.75c.04,2.08.19,4.11-.35,6.17-.71,2.68-7,14.86-8.72,18.16-4.59,8.76-7.74,5.27-4.09-3.33,1.49-3.52,3.77-7.69,5.35-10.74.78-1.5,5.57-12.55,7.83-10.25Z"/>
      <path class="cls-1" d="M151.34,170.83c1.38,1.46-4.04,10.27-4.98,12.3-2.6,5.66-5.22,11.35-7.37,17.2l-3.75,1.21c-.38-1.86-.53-2.93.11-4.78,1.18-3.41,10.85-23.15,12.87-24.83,1.04-.86,1.66-1.36,3.12-1.1Z"/>
      <path class="cls-1" d="M228.43,239.92c1.2,1.51,4.46,16.55,3.22,17.36-4.33,1.75-4.3-5.87-5.38-5.89-5.11,10.84-14.87,5.33-13.18-5.32,1.03-6.5,10.71-12.01,15.34-6.16ZM221.69,252.2c1.23-1.93,5.24-9.53,1.61-10.59-5.01-1.47-10.92,12.63-1.61,10.59Z"/>
      <path class="cls-1" d="M94.5,144.76c1.03,1.04-9.8,26.15-13.39,25.29l-1.62-3.85c2.19-2.81,10.66-21.81,12.46-22.12.37-.06,2.45.57,2.56.68Z"/>
      <path class="cls-1" d="M13.11,137.03c.16.11.72,2.61.63,3.27-.13.97-7.46,16.21-8.41,17.74-.54.86-2.13,2.94-3.25,2.76-2.77-1.66-2.25-4.01-1.41-6.66.53-1.67,8.7-15.39,9.78-16.33.72-.63,1.93-1.28,2.66-.78Z"/>
      <path class="cls-1" d="M250.28,235.72c3.34-.36,4.56,1,2.94,3.91,3.14-.34,3.9-3.43,7.43-3.89,9.14-1.19,8.36,10.76,8.1,17-.72,2.51-2.99.33-4.76.62v-13.72c-2.46-.51-5.67,2.52-6.86,4.41-2.77,4.38-.26,8.53-5.86,10.3.45-1.28-.99-2.89-.99-3.43v-15.19Z"/>
      <path class="cls-1" d="M51.51,143.17c1.23,1.26-9.48,23.12-11.51,24.23-1.81.99-3.53-.48-3.82-2.32-.03-2.68,2.44-3.76,3.03-4.82,2.05-3.69,6.51-14.29,9.57-16.38.93-.64,1.57-.91,2.73-.72Z"/>
      <path class="cls-1" d="M158.17,256.31l-3.77-.15c-.66-1.32-.99-2.78-1.13-4.25-.66-6.98-1.4-19.6-1.05-26.47.17-3.32,1.72-13.85,4.97-6.86l.98,37.74Z"/>
      <path class="cls-1" d="M36.68,242.58l-1.97,17.01c-6.68,3.64-5.53-14.77-4.59-17.73,1.67-5.22,19.42-6.05,16.22,4-1.99,6.23-6.92-5.61-9.66-3.28Z"/>
      <path class="cls-1" d="M188.91,186.26c.33,1.04,0,2.02-.3,3.01-.7,2.34-4.39,10.43-5.65,12.79-1.37,2.58-6.25,9.65-7.06,3.67-.46-3.42,1.43-3.99,2.22-5.6,1.19-2.42,6.57-14.26,8.27-14.57l2.52.7Z"/>
      <path class="cls-1" d="M89.68,202.84c-.54.48-2.39,1.32-2.83,1.01-2-6.45,4.77-11.93,6-18.19,1.13-.91,3.72-7.79,5.11-7.16,1.02.46,1.2,1.57,1.15,2.59-.1,2.14-7.99,20.47-9.43,21.74Z"/>
      <path class="cls-1" d="M117.71,239.94c-4.93-4.38-7.97,6.21-6.42,10.83l.77,1.19,10.84-1.53c.92,7.4-10.19,9.07-14.15,4.84-7.25-7.73,2.89-23.88,10.17-19.01,1.66,1.11,4.61,5.75,1.52,6.32-1.89.35-1.86-1.87-2.73-2.64Z"/>
      <path class="cls-1" d="M99.37,257.29h-2.91c-1.05-3.84-2.92-22.6,1.46-23.52,4.15-.87,1.47,7.44,1.41,9.27-.15,4.74.2,9.53.04,14.26Z"/>
      <path class="cls-1" d="M238.52,236.7l3.44.96c1.2,1.8,2.06,22.53-3.44,16.19v-17.15Z"/>
      <path class="cls-1" d="M95.55,228.76c-2.17-3.45,3.42-7.2,5.34-2.86,1.21,2.72-3.91,5.13-5.34,2.86Z"/>
      <path class="cls-1" d="M243.41,223.96c.13,3.01-1.27,6.6-4.89,5.87v-5.88s4.89.01,4.89.01Z"/>
    </g>
  </g>
</svg>