<?xml version="1.0" encoding="UTF-8"?>
<svg id="Layer_2" data-name="Layer 2" xmlns="http://www.w3.org/2000/svg" viewBox="0 0 694.12 203.52">
  <defs>
    <style>
      .cls-1 {
        fill: #fff;
      }
    </style>
  </defs>
  <g id="Capa_1" data-name="Capa 1">
    <g>
      <path class="cls-1" d="M534.61,23.58c17.09,16.51,28.75,36.89,43.97,54.86,10.72,12.66,24.33,25.26,36.91,35.68,3.75,3.11,11.64,6.61,12.29,11.21l1.63-.68c17.21,16.96,42.71,24.96,62.01,38.02.58.39,4.58-.55,1.63,3.6-2.06,1.46-9.79-2.29-12.3-3.38-15.38-6.72-35.56-19.04-49.2-28.93-3.86-2.79-20.13-17.6-22.19-18.23-3.56-1.08-6.81-.09-10.33-.74-3.44-.63-12.59-5.1-15.99-6.99-7.57-4.19-14.44-10.16-20.07-16.7-1.12,1.19-1.44,3.34-1.33,4.92.4,5.75,7.26,22.91,6.24,26.58-2.54,9.09-15.54.29-19.33-3.06-3.86-3.41-6.22-7.58-8.86-11.55-.81-1.22-7.52-13.23-8.41-12.31l-6.21,20.01-2.99,2.07,1.82,1.33c-2.32,3.57-4.17,14.41-8.87,14.99-1.82.23-7.77-5.53-8.98-7.19-8.18-11.26-8.65-32.73-13.1-45.74-.4-1.16-.65-2.69-2.11-2.93-.64,2.3-1.54,4.86-2.74,6.92-6.41,11.02-28.66,47.48-38.72,52.29-1.54.73-3.48,1.35-5.18.8-5.77-2.5-.9-19.59.67-24.16-9.13,4.51-20.45,19.54-30.85,20.16-13.39.81.08-19.09,2.57-24.12,1.52-3.07,2-3.28,3.39-6.59,1.18-2.78,2.08-5.77,3.75-8.3-1.86-1.77-2.9,1.91-3.99,2.9-8.58,7.86-39.13,31.37-49.82,31.61-2.73.06-8.68-2.19-10.51-1.43-1.32.54-13.2,12.92-16.65,15.57-15.26,11.71-32.25,21.58-47.42,33.47l-14.99,9.36c-.01-1.02-.72-1.67-.41-2.75,1.85-6.39,14.99-12.19,20.52-16.19,37.82-27.35,75.82-58.39,107.19-93.21C425.37,55.09,459.17,3.92,485.84.35c19.92-2.67,35.44,10.34,48.77,23.23ZM521.47,20.18c-23.96-20.45-38.27-18.78-61.46,2.12-22.65,20.42-41.63,48.66-63.91,71.27-10.1,10.24-20.52,20.27-30.28,30.82,2.48-.12,5.18.37,7.62-.18,4.22-.95,27.12-16.19,31.8-19.71,5.28-3.97,10.79-11.18,15.95-14.35,2.25-1.38,4.51-2.19,7.12-2.53.13.99.47,1.84.43,2.88-.19,4.84-3.91,12.55-7.15,15.75l-8.74,22.16c3.52,5.09,3.21,1.08,4.13.56,9.9-5.59,16.34-13.72,25.19-19.68,2.02-1.36,4.17-2.49,6.7-2.43,4.9,1.03-6.25,23.5-.8,26.72,2.97-1.22,3.46-3.92,5.04-5.71,12.43-14.09,22.46-29.64,31-46.48,1.91-3.77,3.75-14.3,9.47-10.78,6.17,3.79,8.44,51.4,20.66,57.46,4.38-4.31,11.51-36.55,14.86-37.58,1.56-.48,5.06.6,6.25,1.77,6.73,9.06,13.13,25.65,25.03,28.3,1.47.33,2.33.77,2.1-1.18-.71-6.06-5.08-14.27-5.55-21.2-.23-3.47,1-10.75,5.29-11.31,5.7-.75,6.65,4.27,9.88,7.24,2.87,2.65,6.42,4.57,9.23,6.34,5.98,3.77,12.63,8.49,19.76,9.24-4.77-6.41-11.68-11.24-17.09-16.9-22.88-23.95-36.44-50.31-62.56-72.6Z"/>
      <path class="cls-1" d="M288.22,147.77c5.75,4.32,11.65,4.05,17.84,7.9.09,5.02-8.82,2.33-11.99,1.41-6.55-1.91-12.05-5.53-16.49-10.62-3.69,7.79-12.21,11.97-20.24,14.24-15.03,4.25-25,1.53-37.43-7.53-1.48-1.08-3.83-4.84-5.29-4.88-7.25,13.94-26.72,17.58-40.91,13.36-6.16-1.83-15.79-6.29-18.4-12.43-15.03,19.64-49.45,20.6-63.87,0l-10.81,8.54c-17.23,10.36-40.77,7.76-52.61-9.44-3.75,2.52-6.59,6.5-10.65,8.64-2.64,1.39-15.26,5.69-17.37,4.22.89-1.18,0-3.33.86-4.13,1.99-1.87,11.91-4.16,15.65-6.47,4.54-2.81,7.94-7.64,11.59-11.42,2.18-.48,4.83,7.5,6.32,9.22,12.21,14.1,36.23,10.63,49.43-.1,2.06-1.68,6.09-7.64,7.62-8.23,1.72-.66,2.65,5.71,4.58,6.44,15.64,18.79,47.42,13.68,58.83-7.35,15.02,24.23,45.26,23.83,60.66,0,4.94,4.01,8.45,9.4,13.97,12.67,18.34,10.85,37.17,1.31,49.45-13.59,2.6,3.82,5.59,6.8,9.27,9.57Z"/>
      <path class="cls-1" d="M602.61,137.62c.34.22.64,1.23,1.48,1.77,4.8,3.06,12.91,5.53,12.64,11.66-2.06,1.82-19.21-10.48-21.62-12.85-1.59-1.56-3.68-2.9-3.19-5.53,1.13-1.13,9.14,3.97,10.69,4.94Z"/>
      <path class="cls-1" d="M396.14,153.82c2.48,2.56-8.97,18.11-12.38,17.47-1.3-.24-1.23-1.66-1.02-2.81.37-2.03,11.41-16.72,13.41-14.66Z"/>
      <path class="cls-1" d="M381.45,146.46c-2.44-3.33,6.95-12.94,9.61-14.77,3.18-2.19,5.37,1.97,2.76,5.55-.81,1.11-11.91,9.84-12.37,9.22Z"/>
      <path class="cls-1" d="M362.13,148.31c.75.89-9.09,13.54-10.51,14.75-1.75,1.49-2.59,2.2-5.1,1.78-1.53-1.39,10.78-16.16,12.85-17.01.45-.19,2.68.37,2.77.48Z"/>
      <path class="cls-1" d="M537.24,125.32c1.85-.44,7.66,9.81,8.47,11.78.66,1.58,1.55,3.4-.66,4.36-3.38,1.46-13.45-14.78-7.81-16.14Z"/>
      <path class="cls-1" d="M614.01,169.47c2.43-1.85,16.18,7.5,13.31,11.94-1.28,1.69-1.65.61-2.83.05-1.16-.55-10.69-8.54-10.98-9.24-.22-.53.39-2.66.5-2.75Z"/>
      <path class="cls-1" d="M404.06,178.3c2.09-2.55,3.42-7.71,6.77-3.79-2.5,2.75-2.94,6.65-5.1,9.59-5.75,7.83-9.65,4.03-3.91-3.95.68-.95,1.74-1.24,2.24-1.85Z"/>
      <path class="cls-1" d="M577.5,159.95c-.75-.61-7.73-9.89-8.07-10.76-.73-1.86-.77-2.38.9-3.63,1.55,2.23,14.99,12.41,10.58,15.16-1.01.89-2.56-.09-3.4-.77Z"/>
      <path class="cls-1" d="M495.42,203.47l-1.84-15.63c3.84-3.88,10.32,16.88,1.84,15.63Z"/>
      <path class="cls-1" d="M536.77,168.52c-.53.51-3.16-.04-4.14-.91-1.26-1.11-7.13-12.47-5.96-13.79,3.77-.33,11.6,13.28,10.1,14.7Z"/>
      <path class="cls-1" d="M430.16,148.31c-.18,1.77-6.62,15.71-9.19,12.86-1.13-5.47,3.54-8.7,4.66-13.73l4.53.88Z"/>
      <path class="cls-1" d="M453.14,158.41c-.46-.47.61-6.31,1.01-7.54.2-.61,1.2-.69,1.64-1.49.54-1.01.58-5.31,3.31-4.75,3.78.77-.88,15.55-5.96,13.78Z"/>
      <path class="cls-1" d="M567.38,182.1c.6.56,3.23-.36,3.05,2.53-.1,1.51-1.71,4.1-3.34,2.78-1.99-2.15-8.16-7.32-5.96-10.62,2.49-3.75,5.92,5,6.26,5.31Z"/>
      <path class="cls-1" d="M497.08,145.43l-1.67.57c3.69,1,1.43,5.8.92,8.74l-3.73-1.49-.63-10.05c.4-2.6,6.87-1.6,5.11,2.23Z"/>
      <path class="cls-1" d="M482.48,128.94l-2.69.05c.05-5.07-.39-11.45,4.13-14.7,3.42-.12-1.12,13.03-1.44,14.64Z"/>
      <path class="cls-1" d="M441.18,172.21v3.68s-1.83-.93-1.83-.93c1.48,2.29-1.48,9.76-4.13,9.2-4.9-2.55,3.51-14.49,5.96-11.94Z"/>
      <path class="cls-1" d="M658.89,174.15l-1.24,4.45c-1.6-1.06-10.13-3.81-9.66-5.92,2.98-3.37,7.52.62,10.9,1.47Z"/>
      <path class="cls-1" d="M508.29,179.56c-.4-3.13-2.5-6.45-3.01-9.43-.14-.82-1.06-2.16.72-2.51,3.58-.7,8.47,11.66,2.29,11.95Z"/>
      <path class="cls-1" d="M474.27,151.97c-.27,4.07,1.15,12.06-4.59,11.95l1.85-11.95h2.74Z"/>
      <path class="cls-1" d="M466.47,183.24c3.96-.91.55,11.53-1.84,11.02-3.1-.66.26-9.7,1.84-11.02Z"/>
      <path class="cls-1" d="M601.11,186.91c-3.82.57-6.49-3.46-7.82-6.44-.57-1.29-.09-2.53.94-2.75s8.17,7.87,6.88,9.18Z"/>
      <path class="cls-1" d="M540.07,67.78c-2.32-2.46-20.66-20.8-17.99-23.37,1.7-.25,2.71.01,4.18.87,2.34,1.37,15.92,17.23,18.26,20.35,1.63,2.18,5.01,6.02,1.9,8.19-1.8.39-5.15-4.78-6.34-6.05Z"/>
      <path class="cls-1" d="M452.68,59.14c3.66,4.45-.04,11.23-3.68,14.67-3.99-.08.27-14.81,3.68-14.67Z"/>
      <path class="cls-1" d="M522.98,70.14c-3.58,1.78-10.24-8.59-9.18-10.09,4.78-4.8,10.21,9.02,9.18,10.09Z"/>
      <path class="cls-1" d="M460.48,88.54l-.83,5.14c-3.34,3.45-7.77-.13-4.76-3.85l5.6-1.29Z"/>
    </g>
  </g>
</svg>