<?xml version="1.0" encoding="UTF-8"?>
<svg id="Layer_2" data-name="Layer 2" xmlns="http://www.w3.org/2000/svg" viewBox="0 0 850.84 288.04" fill="currentColor">
  <g id="Capa_1" data-name="Capa 1">
    <g>
      <path  d="M6.66,180.04c-2.22.51-1,.98-1.1,1.86-.48,4.67.41,14-.58,17.7-.43,1.6-1.83,1.82-3.08,2.4-.94-1.57-1.45-2.96-1.7-4.78-1.01-7.31,2.23-19.57,1.58-27.45,1.36-3.08,5.29-1.78,7.1-.11.89.83.54,2.36.66,2.4.2.07,2.13-.69,4.23-.11,1.6.44,13.18,5.34,14.58,6.18,1.81,1.08,4.26,3.09,2.45,5.24-1.39,1.66-12.41-3.67-14.33-4.78-1.83-1.05-1.72-3.13-3.19-.86-1.19-.17-3.09-4.05-4.95-2.23,6.81,9.46,15.4,21.5,24.41,28.92,3.79,3.12,10.91,4.27,9.96,10.47-1.43,2.83-13.37-6.69-14.73-7.9-8.24-7.32-15.87-17.45-21.28-26.96Z"/>
      <path  d="M121.91,215.5c1.57-.55.55-1.99,1.9-2.85,3.44-2.19,17.01-7.57,21.06-8.43,1.1-.23,3.76-.71,4.13.93.7,3.11-10.57,7.5-13.35,8.59-1.92.76-8.13,3.12-9.54,3.34-.84.13-4.25-1.03-4.21-1.58Z"/>
      <path  d="M110.73,219.76c-4.22,2.39-8.04,3.65-12.79,4.36-2.11.32-12.25,1.16-13.79.95-3.79-.52-2.93-3.9-.23-4.85,2.11-.74,5.52.03,7.87-.32,1.77-.26,20.88-5.36,18.94-.14Z"/>
      <path  d="M67.7,223.55c-1.86-.13-3.74.05-4.7-.05-2.49-.24-14.6-1.58-12.3-5.7.91-.81,1.97-1.03,3.15-1.04,1.01,0,18.81,3.48,19.73,3.88.91.4,1.4.38,1.66,1.59-2.44,1.66-4.8,1.5-7.54,1.31Z"/>
      <path  d="M491.11,163.69c-.32-1.11-11.79-15.16-13.79-18.42-8.33-13.55-15.34-28.11-23.98-41.51-9.64-14.95-17.64-30.12-35.46-35.4-24.82-7.35-40.7,16.2-53.24,33.25-17.89,24.31-39.7,66.68-64.24,82.86-4.01,2.64-7.64,3.44-11.64,5.53l-1.59-2.13c-.79,4.38-4.15,5.07-8.01,5.41-2.74.25-12.18,1.15-11.34-2.19h-1.04c-.22.3.34,1.63-.49,1.93-1.67.6-13.73-.9-15.01-1.81l-.63-4.42-1.58,4.27c-2.32-1.67-5.67-1.18-8.01-2.73-2.36-1.56-3.3-5.2-.64-5.61,2.98-.46,15.71,4.19,20.83,4.5,25.43,1.52,39.17-6.9,54.85-25.97,19.58-23.8,49.14-83.61,74.96-95.51,44.88-20.67,66.33,34.7,84.84,64.48l-1.94,3.94,2.67-1.99,13.96,20.24c-.22-11.98-1.63-24.75-.17-36.69.63-5.2.47-9.71,5.51-12.73,5.04-3.02,25.55-3.54,32.28-3.23,6,.27,21.32,1.66,26.55,3.5,5.29,1.87,4.12,11.79,4.02,16.45-.44,20.04-4.29,40.48-4.79,61.15-.39,16.03,1.27,32.33.08,48.39l-2.81,2.61,2.16.71c-.3,6.89,1.34,21.54-8.62,20.8l1.09,3.2c-9.51,3.73-18.31,4.59-28.42,4.34l-.59-3.25-2.77,3.25c-34.98-1.12-19.33-40.5-23-63.39-3.91,2.71-6.67-3.27-10-2.98-1.35.12-3.55,1.81-5.28,2.31-2.16.63-4.46,1.66-4.75,1.72-3.53.79-8.82-.56-12.65.1l-.6-3.29-2.57,2.17-8.88-4.17c-7.38,4.47-16.99,4.69-25.03,1.98,3.36-5.47,11.93-1.95,18.29-3.71,2.63-.73,5.59-3.48,8.02-4.87,7.27,11.03,24.31,7.26,34.34,2.19l9.12,5.32v-30.6ZM542.63,107.32c-14.09-1.91-28.9-1.67-42.94.52-.09,2.97,29.64,2.96,32.79,2.72,2.75-.21,8.53-.86,10.15-3.25ZM509.51,160.85c8.04,1.43,33.84,3.44,39-3.14,2.33-2.97,1.31-13.66,1.67-17.64.9-9.86,2.35-19.69,3.18-29.54-17.61,8.49-38.23,7.94-56.88,3.23l1.03,125.14c-2.59,19.17,32.16,18.07,42.66,12.53,3.17-1.67,4.09-5.68,7.82-3.44l1.07-83.76c-13.06,5.1-28.16,3.84-41.85,1.07,2.37,5.7,2.32,12.52,2.19,18.86-.04,2-1.59,3.19-1.7,4.23-.28,2.62,2.26,12.07,1.73,14.9l-2.25,1.2,2.26,2.07c-1.33,11.28,1.07,24.6-.03,35.58-.27,2.69-.22,4.11-2.75,5.82-2.96.05-1.06-10.45-1.14-12.32-.18-3.94-2.03-15.12-1.48-18.32.56-3.23,3.97-1.84,3.17-4.23l-3.24-.56c2.89-15.63-1.11-31.89,1.09-47.7l-1.08-41.42c2.34-.29,3.89,1.81,4.26,3.78,1.08,5.71-1.44,30.96,1.25,33.65Z"/>
      <path  d="M781.97,183.31c-.25-17.64-18.64-26.62-24.83-42.36-2.33-2-5.15,3.03-5.85,4.82-3.2,8.17-1.69,18.68-4.61,27.04l4.44,5.79c-2.49-.27-4.7,2.67-4.98,2.75-.88.26-2.66-.6-4.17-.12-9.55,3.09-20.23,7.64-25.66,16.64,3.22,5.63,8.87,10.38,15.79,8.98,3.36-.68,2.14-.72,5.94-1.01,1.43-.11,3.99-3.06,6.18-2.64,1.36.26,1.33,2.45,2.33,3.21,2.33,1.77,8.74.39,6.3,6.89l-7,4.26.86,2.59c-.92-.78-1.69-.94-2.79-.35-4.12,2.18-23.29,22.11-23.99,26.15-1.53,8.8,12.76,9.18,18.39,8.43,2.46-.33,4.26-1.74,6.28-1.51-9.98,12.04-24.77,17.17-38.65,22.94-.85.35-1.55.13-2.17-.5l.52,2.96c-1.25-.35-2.82-1.8-3.92-1.91-4.33-.44-14.53,1.71-20.4,1.6-4.68-.09-10.72-.72-15.59-1.05-3.2-.22-5.3-3.18-7.15.98l-.92-3.2c-27.56-4.82-56.99-19.89-78.02-38.31-6.45-5.65-19.36-21.99-24.49-25.08-.62-.37-1.25-1.29-1.64-.47-2.42,7.57,11.45,20.68,16.89,25.6,45.33,41.04,128.2,71.03,178.66,22.82,1.56-1.49,2.05-4.05,3.04-4.74,1.14-.79,4.59-.18,5.98-1.02,1.24-.75,1.19-2.85,1.34-2.88.23-.04,2.27,1.37,4.47,1.24,2.11-.12,5.85-1.88,7.53-3.34l1.37,3.6,2.11-1.13c-.47.8-1.56,1.68-1.54,2.56.02.69,5.98,10.21,6.07,12.48,2.04-1.22,2.26-1.51,4.29.4-5.96-.09-2.93,13.64-.96,16.71,7.88,12.33,10.73-2.04,13.82-6.98,2.16-3.46,7.94-8.64,9.98-12.62,3.62-7.07,7.04-17.5,3.26-24.71.59-1.79,2.34.92,2.67-.05,1.27-3.73-1.33-2.45-1.48-5l2.28-1.68-2.34-2.31c4.07-1.21,9.07,3.01,12.41.27,1.99-1.64,1.56-4.71,2.76-6.8.99-1.72,2.87-2.56,3.85-4.43.81-1.56,1.05-7.46,2.04-7.67,3.95,5.58,20.53-6,20.19-8.09-4.76-2.8-10.03-7.39-14.82-9.79-6.55-3.28-20.6-7.85-27.23-4.1-2.36,1.33-4.67,6.6-7.41,3.89,6.5-4.4,3.01-10.73,3.76-17.21.66-5.71,7.02-19.71-.88-22.28-12.77-4.15-19.56,21.1-22.29,29.72ZM781.45,200.36c-.19-1.13-1.8-2.31-2.13-3.86-1.57-7.18,1.88-4.99,4.81-7.38,8.67-7.08,5.44-26.97,18-29.67l-4.88,32.04,2.35.34c-2.02,1.74-3.13,5.18-4.17,7.91-.35.91,1.1,1.68.78,2.46-.18.43-5.02,7.22-5.43,7.64-1.27,1.29-3.37,1.4-4.58,2.78-1.28-3,2.94-6.03,2.64-9.3-.07-.72-1.21-2.32-1.68-3.17-1.34.39-.96,7.55-4.1,7.63-3.61.09-1.52-6.74-1.63-7.41ZM794.6,211.96c.9-1.92,3.19-1.7,4.54-3.04,4.15-4.15,5.75-9.96,12.32-13.97,10.66-6.51,22.72,4.69,32.52,8.54-2.91.24-7.17,3.19-9.41,3.46-6.57.8-16.37-6.9-20.25,3.17l10.34,2.06c-1.68,1.64-.77,4.6-1.66,6.17-1.18,2.08-3.97,1.7-4.58,2.98-.47.99.74,3.18-.66,4.36-9.26-2.66-15.03-9.75-23.15-13.73ZM756.36,150.75c3.37,2.18,4.15,6.55,6.23,9.32,6.11,8.19,17.47,16.24,13.3,28.14-5.82-4.39-20.6-8.34-23.09-15.67-.64-1.88,1.45-4.44,1.6-6.44.41-5.27-.5-10.01,1.96-15.35ZM722.27,198.97c5.11-5.89,19.69-14.3,27.31-13.62,2.19.2,17.21,3.19,18.39,3.91,1.76,1.07,5.66,6.09,6.4,8.07,1.17,3.11-1.26,4.72,1.05,6.37l-1.65,1.44c-4.02-3.33-9.44-4.85-14.62-4.41,3.81,4.24,10.32,4.71,14.95,8.6-4.76,3.1-10,.22-15.39,2.24-.37-3.81-1.51-9.18-6.1-9.57-.84-.07-1.8,1.37-2.38.98-1.85-1.24-2.62-4.35-6.26-5.52-3.66-1.17-10.1,5.14-16.33,3.64-1.72-.42-3.3-2.03-5.36-2.12ZM791.55,216.92c6.51.95,16.13,13.64,15.37,19.56-.49,3.82-6.12,2-2.34,7.89.5.78,1.9.87,1.89.98-.04.58-1.96,1.31-2.35,2.43-.47,1.35.16,3.22-.37,4.59-3.91,10.19-11.04,17.49-16.09,27.01-.39.09-3.81-6.62-3.89-7.01-.29-1.42,1.29-3.12,1.29-4.87-.01-7.94-4.91-8.5-7.37-12.98-1.07-1.95-1.58-8.27-3.43-10.96.06-5.68,8.5-12.43,6.21-17.28l3.53-2c5.26,5.5,4.74,11.58,4.92,18.31.03,1.21-.29,3.51,1.75,2.78,2.35-6.06,2.43-13.73-1.85-18.99-2.21-2.72-6.02-3.28-5.73-7.43,2.14.09,6.69-2.3,8.46-2.04ZM771.72,217.79c.92.03,2.07-1.39,3.23-1.29l-1.41,2.94,3.85.09c-2.48,12.83-9.55,21.94-19.73,29.73-4.07-.11-31.36-.17-31.92-3.13,6.67-5.71,11.54-13.16,17.89-19.17,4.23-4,11.6-8.29,16.56-11.09,6.82-3.84,7.25,1.8,11.53,1.92Z"/>
      <path  d="M57.04,160.3c-14.61-15.07-10.98-33.81-4.73-52.19,4.88-14.35,22.23-49.61,39.04-51.22,9.59-.92,5.79,5.06,6.18,9.96,2.18,26.88,25.49,45.74,23.19,72.11-2.71,31.18-42.37,43.31-63.69,21.33ZM90.68,63.28c-20.01,10.46-38.2,50.92-37.6,72.42.75,26.67,28.79,37.9,49.76,22.96,13.59-9.68,14.21-25.63,8.44-40.27-7.21-18.3-21.09-33.98-20.6-55.11Z"/>
      <path  d="M338.83,184.47l1.98-.92.02,4.3,1.07-3.23c1.1-1.14,9.34,4.46,10.14,6.3,6.51-.65,13.81.49,20.29-.99.49-.11,3.82-4.69,8.69-4.22,2.49.24,9.74,5.9,14.11,6.41,6.35.75,15.39-5.53,19.13-5.38.61.03.63,1.77,1.44,2.11,2.39,1,7.42,0,6.7,3.29l-3.23-.51,1.08,3.74c-8.2-6.62-13.83.88-23.06,1.14-7.7.22-12.88-5.41-17.21-5.32-2.78.06-7.47,3.62-10.78,4.12-6.52.98-15.02.13-21.1-2.39-3.08-1.28-6.29-4.97-9.97-4.98-2.94,0-9.87,5.4-14.26,6.16-1.77.3-10.9.47-12.61.27-3.21-.36-6.1-2.27-6.94-5.42,3.44-1.13,2.67,2.08,4.78,2.25,8.33.65,21.42-3.2,26.9-9.77l2.83,3.06Z"/>
      <path  d="M652.3,24.46l-27.61,4.58c-2.69-.27-3.23-3.09-4.08-5.21,9.63-3.16,19.95-6.15,30.21-4.57l1.49,5.2Z"/>
      <path  d="M703.78,6.99l-26.38,9.34c-2.69.21-3.72-2.47-4.93-4.42,8.93-4.8,18.57-9.55,28.94-9.79l2.38,4.86Z"/>
      <path  d="M401.8,15.78c.26-1.29,15.34-11.01,17.54-12.11,1.9-.95,7.46-3.93,9.02-2.03,3.79,4.61-5.14,6.99-7.37,8.43-5.21,3.38-16.96,15.64-19.19,5.7Z"/>
      <path  d="M601.94,29.33c-1.23,2.84-24.36.53-28.08-.48-5.72-1.55-2.6-5.69,1.64-7.02l-.18,2.38c3.55-2.86,6.02-.09,7.95.07,5.97.48,16.45-1.68,18.67,5.05Z"/>
      <path  d="M471.1,6.32c-.12.56-3.22,2.62-4.66,2.6-.97-.01-2.37-1.16-3.67-1.24-3.2-.2-18.99-.47-19.61-4.11-.91-5.31,13.58-3.25,16.68-2.77,2.3.36,12,2.07,11.26,5.52Z"/>
      <path  d="M485.91,8.27c1.77-.86,3.51-3.01,5.66-2.93,3.33.12,17.06,2.2,20.02,3.27,4.56,1.65,4.16,3.93-.48,5.33-3.22.97-25.99-2.64-25.2-5.68Z"/>
      <path  d="M553.93,20.41c-1.73,4.25-21.69-1.51-25.29-3.34-1.73-.88-2.67-1-3.14-3.33,1.99-.95,3.82-1.9,6.12-1.95,1-.02,18.56,4.14,19.44,4.6,1.87.98,2.25,2.15,2.87,4.02Z"/>
      <path  d="M156.17,200.72l.1-5.21c9.48-2.95,17.47-5.95,25.13-11.96l1.05,2.16,2.68-1.13-1.05-2.1c4.37-1.67,6.77,1.19,3.14,4.74-2.57,2.51-21.76,12.46-25.4,13.25-1.88.41-3.76.32-5.65.24Z"/>
      <path  d="M183.84,148.42c2.53,1.35,2.38,4.7,2.61,4.89.6.48,2.48.21,3.61,1.19,2.28,2,3.04,5.32,7.93,5.48-1.8,17.26-22.82-9.98-16.59-11.87.73-.22,1.72-.07,2.43.31Z"/>
      <path  d="M167.44,117.22c6.04-.58,5.53,14.09,8.07,17.56.03,4.48-3.24,4.92-5.89,1.5-2.1-2.72-7.06-18.59-2.19-19.05Z"/>
      <path  d="M241.95,107.42c2.79,1.88-.56,23.53-8.48,20.29l3.71-19.37,4.77-.92Z"/>
      <path  d="M222.88,183.36l-.75-1.99c-3.56,3.55-20.86-6.65-18.72-9.61,7.95-2.39,16.76,5.63,23.59,9.12l-4.12,2.49Z"/>
      <path  d="M200.2,72.94l1.06-6.43c3.7.04,16.8-1.88,18.18,2.78,2.12,7.16-15.65,2.48-19.25,3.65Z"/>
      <path  d="M227.4,146.33c-2.37,3.72-6.6,12.49-12.18,7.67,2.37-7.02,8.55-11.45,13.42-16.6,1.29-.1,1.64,6.23,1.46,6.81-.38,1.27-2.23,1.37-2.71,2.11Z"/>
      <path  d="M171.2,87.98c1.88,1.32-2.12,13.76-3.3,15.48-2.01,2.92-6.54,2.6-5.93-1.54.73-5.01,2.89-14.34,9.23-13.93Z"/>
      <path  d="M238.81,95.48c-6.21,1.16-5.24-3.52-7.29-7.15-1.02-1.8-6.77-7.93-2.82-8.92,5.33-1.35,12.73,11.1,10.11,16.07Z"/>
      <path  d="M386.79,50.69c-.04.39-1.38,4.49-2.58,3.82-2.24-3.98-5.07-20.89.59-22.21,5.4-1.26,1.73,10.79,1.65,12.06-.13,2.15.62,3.8.35,6.33Z"/>
      <path  d="M189.38,71.92l1.17,3.56c-3.61,3.55-8.79,6.37-13.97,4.97,1.69-6.59,2.28-1.01,2.73-.98,5.68.33,2.49-9.1,10.07-7.55Z"/>
      <path  d="M381.46,107.45c1.71,3.01-5.11,8.06-6.85,5.26-.82-1.79-1.09-5.88.52-7.07,1.45-1.07,6,1.21,6.33,1.81Z"/>
      <path  d="M383.77,86.91c3.41.58,4.74,1.54,7.5-1.08.52,3.34-.81,10.44-5.37,8.09-2.45-1.64-2.31-4.31-2.12-7.02Z"/>
      <path  d="M427.31,120.22c3.35-.96,8.77,5.72,2.91,7.34-6.43,1.78-6-6.45-2.91-7.34Z"/>
      <path  d="M393.43,114.82c2.63.92,5.27-.86,7.04,2.17,1.2,2.4-2.17,6.93-4.92,4.86-2.45-1.64-2.32-4.32-2.12-7.02Z"/>
      <path  d="M439.45,109.33c-.16.25-5.03,2.7-5.8,1.23-.9-1.59-1.02-5.94.51-7.06,3.42-2.14,6.83,3.39,5.28,5.83Z"/>
      <path  d="M449.25,124.49l5.97,1c2.47,10.18-7.58,7.51-5.97-1Z"/>
      <path  d="M410.61,75.09l2.14-1.64c2.56-1.05,2.99,5.17,1.15,6.55l-4.98-.56.62-6.49,1.07,2.14Z"/>
      <path  d="M449.25,162.07c3.49-.53,7.62,1.31,5.65,5.06-.73,2.25-3.6,3.72-5.14,1.41l-.51-6.47Z"/>
      <path  d="M428.55,91.99c-1.81,1.49-6.48,1.55-6.93-1.31-.56-3.54,8.29-5.78,8.16-1.26-.4.79-.57,2.03-1.23,2.57Z"/>
      <path  d="M404.45,215.48c-4.61-4.68,2.44-4.28,5.06-6.15,1.2,3.32,1.82,6.54-2.5,7.31-.87-.25-1.92-.51-2.57-1.16Z"/>
      <path  d="M423.34,228.79c1.84,2.16-.79,7.87-4.15,5.85-1.09-.66-2.46-4.09-2.13-5.38.59-2.31,5.81-1.02,6.28-.47Z"/>
      <path  d="M337.45,213.77c3.53,5.61-5.01,7.81-6.27,3.54-1.14-3.83,4.81-5.86,6.27-3.54Z"/>
      <path  d="M363.3,223.15l-3.57,1.07-3.71-4.71,2.47-2.29c4.29.47,4.77,2.05,4.81,5.93Z"/>
      <path  d="M396.46,229.58c-.32.79-4.9,3.37-6.25,2.3-2.21-9.59,7.85-6.23,6.25-2.3Z"/>
      <path  d="M437.27,175.12c2.78,4.41-4.81,7.24-6.12,2.35-1.22-4.57,5.2-3.82,6.12-2.35Z"/>
      <polygon  points="412.74 103 407.36 103.61 406.79 98.63 411.72 98.18 412.74 103"/>
      <path  d="M416.86,154.72c.35.21,1.62,3.35.78,4.17l-5.97,1.05v-5.38c1.47.21,4.1-.5,5.19.17Z"/>
      <path  d="M442.71,146.06c2.36,7.61-9.45,5.59-6.26,0h6.26Z"/>
      <path  d="M514.19,245.84l-1.09-2.15c2.58-3.41,20.69-2.46,25.24-1.05.99,2.21-3.06,3.21-3.75,3.21h-20.4Z"/>
      <path  d="M769.41,217.83l-13.55,15.41c-2.88-3.9-4.25-.19-2.9,3.19,2.09,1.52,18.2-13.3,19.07-16.75l-2.62-1.85Z"/>
      <path  d="M100.36,149.18c1.2-6.11,4.51-11.76,3.86-18.26-.63-6.34-5.45-12.78-7.12-18.88l2.17-2.57c-1.16-.04-2.45.38-3.33-.67-1.75-2.11-9.2-17.32-9.81-20.1-.89-4.07.91-5.88,3.52-1.3,5.39,9.45,19.6,38.39,18.16,48.3-.26,1.77-1.49,3.07-1.85,4.61-.96,4.07,1.08,9.24-5.61,8.88Z"/>
      <path  d="M66,141.67c-2.19,1.98-5.54-3.9-5.99-5.36-1.94-6.27,8.24-42.75,12.97-42.94,2.16,1.49,1.54,2.23,1.14,4.33-2.68,14.11-15.36,28.89-8.12,43.97Z"/>
      <path  d="M87.48,151.33c.38-4.54,4.52-7.35,5.92-11.79,4.78-15.19-5.36-18.57-9.14-31.15,2.71-.56,2.7.38,4.12,1.77,2.77,2.71,9.49,15.28,9.87,19.15.67,6.76-2.32,21.53-10.77,22.02Z"/>
    </g>
  </g>
</svg>