<?xml version="1.0" encoding="UTF-8"?>
<svg id="Layer_2" data-name="Layer 2" xmlns="http://www.w3.org/2000/svg" viewBox="0 0 193.74 63.76">
  <defs>
    <style>
      .cls-1 {
        fill: #fff;
      }
    </style>
  </defs>
  <g id="Capa_1" data-name="Capa 1">
    <path class="cls-1" d="M23.59,48.13c8.59-5.42,25.64-13,35.32-16.65,39.62-14.92,83.45-7.58,121.08,10.32-1.23,4.25-6.69,2.09-10.02,2.49-4.34.52-21.87,2.55-23.24,6.53l.83,3.57c12.8-3.48,29.72-1.46,41.9-4.32,1.69-.4,3.67-.82,4.22-2.75,1.22-5.27-14.65-30.11-18.46-35.95-2.78-4.25-7.53-14.78-12.69-10.27.8,13.17,12.3,21.55,17.53,32.84-6.01-1.27-10.97-5.03-16.63-7.03C104.16,6.02,50.14,15.12,4.5,58.1c-.78.73-7.33,4.23-3.08,5.63,2.11.69,18.75-13.45,22.17-15.6Z"/>
  </g>
</svg>