<?xml version="1.0" encoding="UTF-8"?>
<svg id="Layer_2" data-name="Layer 2" xmlns="http://www.w3.org/2000/svg" viewBox="0 0 129.04 50.07">
  <defs>
    <style>
      .cls-1 {
        fill: #fff;
      }
    </style>
  </defs>
  <g id="Capa_1" data-name="Capa 1">
    <path class="cls-1" d="M18.73,13.08C51.66-11.27,90,.88,115.74,29c1.15,1.26,5.82,8.69,6.92,8.07-.73-4.13-4-19.28-1.27-22.07.65-.67,1.61-.59,2.44-.37,2.96.81.78,8.69,1.08,10.97.79,5.93,2.65,11.5,3.04,18.48,0,.17,1.16.31,1.09.66-.18.96-1.82,5.25-2.84,5.32l-33.38-11.24.52-2.84c8.99-.94,17.66,3.49,26.14,5.98-13.13-16.23-26.46-29.28-47.39-34.7-18.83-4.88-39.02.42-53.63,12.49-4.68,3.87-10.78,12.96-14.38,15.42-.98.67-2.24.48-3.28.99-1-1.11-.97-1.14-.4-2.42.51-1.15,4.23-6.34,5.25-7.66,3.18-4.12,8.92-9.93,13.09-13.01Z"/>
  </g>
</svg>