<?xml version="1.0" encoding="UTF-8"?>
<svg id="Layer_2" data-name="Layer 2" xmlns="http://www.w3.org/2000/svg" viewBox="0 0 90.66 146.87">
  <defs>
    <style>
      .cls-1 {
        fill: #fff;
      }
    </style>
  </defs>
  <g id="Capa_1" data-name="Capa 1">
    <path class="cls-1" d="M36.65,127.09c-.52,0-.73-1.57-1.36-1.02l.15,1.89-18.46,10.57,25.38,4.95-1.42,3.38c-9.89-.46-19.74-1.49-29.58-2.56-3.78-.41-7.13,1.38-10.82-1.68l-.56-3.15,20.03-33.67c.37.62.9,1.22,1.15,1.9,1.83,4.9-9.03,21.84-11.88,26.76-.68,1.18-2.32.9-.54,2.79,9.3-5.98,19.24-10.54,28.53-16.6,30.55-19.93,64.16-52.85,40.27-91.25-9.41-15.12-18.96-13.41-31.24-20.8-1.24-.75-1.84-2.5-2.31-2.78-.14-.09-1,1.91-2.95,1.58-1.59-.27-7.15-3.31-7.61-5.01l1.11-2.38c9.27,3.35,19.27,4.05,28.13,8.76,20.38,10.84,28.66,31.38,27.93,53.52-.63,18.91-18.48,39.39-32.63,50.74-3.02,2.42-19.52,14.11-21.33,14.08Z"/>
  </g>
</svg>