<?xml version="1.0" encoding="UTF-8"?>
<svg id="Layer_1" data-name="Layer 1" xmlns="http://www.w3.org/2000/svg" version="1.1" viewBox="0 0 316 123.8">
  <defs>
    <style>
      .cls-1 {
        fill: #00a0af;
        stroke-width: 0px;
      }
    </style>
  </defs>
  <path class="cls-1" d="M268.3,45.8c0-5.4,4.4-9.8,9.8-9.8h3.4c5.4,0,9.8,4.4,9.8,9.8v20h6.5v-20c0-9-7.3-16.3-16.3-16.3h-3.4c-9,0-16.3,7.3-16.3,16.3v20h6.5v-20ZM95.6,48.2v-2.4c0-9-7.3-16.3-16.3-16.3h-3.3c-9,0-16.3,7.3-16.3,16.3v4.8c0,9,7.3,16.3,16.3,16.3h3.3c3.7,0,7.1-1.2,9.8-3.3v2.1h6.5v-17.5h0ZM89.2,50.6c0,5.4-4.4,9.8-9.8,9.8h-3.4c-5.4,0-9.8-4.4-9.8-9.8v-4.8c0-5.4,4.4-9.8,9.8-9.8h3.3c5.4,0,9.8,4.4,9.8,9.8,0,0,0,4.8,0,4.8ZM38.6,29.5h-3.3c-3.6,0-7,1.2-9.7,3.2v-16.3h-6.5v27.4c0,.6-.1,1.3-.1,1.9v20h6.5v-.2h.1v-21.3c.7-4.7,4.8-8.3,9.7-8.3h3.3c5.4,0,9.8,4.4,9.8,9.8v20h6.5v-20c0-9-7.3-16.3-16.3-16.3M196.8,30.9v34.7h6.5V30.9h-6.5ZM196.8,21.2v5.8h6.5v-5.8h-6.5ZM208.9,30.9v34.7h6.5V30.9h-6.5ZM208.9,21.2v5.8h6.5v-5.8h-6.5ZM191,48.2v-2.4c0-9-7.3-16.3-16.3-16.3h-3.4c-9,0-16.3,7.3-16.3,16.3v4.8c0,9,7.3,16.3,16.3,16.3h3.4c3.7,0,7.1-1.2,9.8-3.3v2.1h6.5v-17.5h0ZM184.5,50.6c0,5.4-4.4,9.8-9.8,9.8h-3.4c-5.4,0-9.8-4.4-9.8-9.8v-4.8c0-5.4,4.4-9.8,9.8-9.8h3.4c5.4,0,9.8,4.4,9.8,9.8v4.8ZM256.5,48.2v-2.4c0-9-7.3-16.3-16.3-16.3h-3.4c-9,0-16.3,7.3-16.3,16.3v4.8c0,9,7.3,16.3,16.3,16.3h3.4c3.7,0,7.1-1.2,9.8-3.3v2.1h6.5v-17.5h0ZM250.1,50.6c0,5.4-4.4,9.8-9.8,9.8h-3.4c-5.4,0-9.8-4.4-9.8-9.8v-4.8c0-5.4,4.4-9.8,9.8-9.8h3.4c5.4,0,9.8,4.4,9.8,9.8v4.8ZM142.6,30.7v19c0,1.9-.6,3.7-1.6,5.2l-2.6,3.7c-.6.8-1.6,1.3-2.6,1.3h0c-1,0-2-.5-2.6-1.3l-2.6-3.7c-1.1-1.5-1.6-3.3-1.6-5.2v-19h-6.5v19c0,1.9-.6,3.7-1.6,5.2l-2.6,3.7c-.6.8-1.6,1.3-2.6,1.3s-2-.5-2.6-1.3l-2.6-3.7c-1.1-1.5-1.6-3.3-1.6-5.2v-19h-6.5v19c0,3.2,1,6.3,2.8,8.9l2.7,3.7c1.8,2.5,4.8,4.1,7.9,4.1h0c3.1,0,6.1-1.5,7.9-4.1l2.3-3.2,2.3,3.2c1.8,2.5,4.8,4.1,7.9,4.1h0c3.1,0,6.1-1.5,7.9-4.1l2.6-3.7c1.9-2.6,2.9-5.7,2.9-8.9v-19h-6.5ZM248.1,79.2c0-.2,0-.5.1-.7,0-.2.2-.4.4-.6.2-.2.3-.3.5-.4.2,0,.4-.1.7-.1s.5,0,.7.1c.2,0,.4.2.5.4.2.2.3.3.4.6,0,.2.1.4.1.7s0,.5-.1.7c0,.2-.2.4-.4.6-.2.2-.3.3-.5.4-.2,0-.4.1-.7.1s-.5,0-.7-.1c-.2,0-.4-.2-.5-.4-.2-.2-.3-.3-.4-.6,0-.2-.1-.4-.1-.7M248.4,79.2c0,.2,0,.4.1.6,0,.2.2.3.3.5.1.1.3.2.5.3.2,0,.4.1.6.1s.4,0,.6-.1c.2,0,.3-.2.5-.3s.2-.3.3-.5.1-.4.1-.6,0-.4-.1-.6c0-.2-.2-.3-.3-.5-.1-.1-.3-.2-.5-.3-.2,0-.4-.1-.6-.1s-.4,0-.6.1c-.2,0-.3.2-.5.3s-.2.3-.3.5-.1.4-.1.6M249.2,78.2h.8c.5,0,.7.2.7.6s0,.3-.1.4c-.1,0-.2.1-.4.2l.6.9h-.3l-.5-.9h-.3v.9h-.3v-2h0ZM249.5,79.1h.3c0,0,.1,0,.2,0,0,0,.1,0,.2,0,0,0,0,0,.1,0,0,0,0-.1,0-.2s0-.1,0-.2c0,0,0,0-.1,0,0,0,0,0-.1,0,0,0-.1,0-.2,0h-.4v.7Z"/>
  <path class="cls-1" d="M72.1,103.4h1.2c1.2,1.9,2.4,3.7,3.7,5.6h0v-5.6h.9v6.8h-1.2c-1.2-1.9-2.5-3.7-3.7-5.6h0v5.6h-.9c0-2.3,0-4.5,0-6.8"/>
  <path class="cls-1" d="M84,103.4h.8c.9,2.3,1.9,4.5,2.8,6.8h-1.1c-.2-.6-.4-1.1-.7-1.7h-3.2l-.7,1.7h-1.1c1-2.3,2-4.5,2.9-6.8M85.6,107.7c-.4-1-.8-2.1-1.2-3.1h0c-.4,1-.8,2.1-1.3,3.1h2.5Z"/>
  <path class="cls-1" d="M91.4,104.3h-2.1v-.9h5.2v.9h-2.1v5.9h-.9v-5.9h0Z"/>
  <path class="cls-1" d="M98.5,103.4v4.2c0,.2,0,.4,0,.7,0,.2.2.4.3.6s.3.4.5.5.5.2.8.2.6,0,.8-.2.4-.3.5-.5.2-.4.3-.6c0-.2,0-.4,0-.7v-4.2h.9v4.3c0,.4,0,.8-.2,1.1s-.3.6-.6.8c-.2.2-.5.4-.8.6-.3.1-.7.2-1,.2s-.7,0-1-.2c-.3-.1-.6-.3-.8-.6-.2-.2-.4-.5-.6-.8s-.2-.7-.2-1.1v-4.3h.9Z"/>
  <path class="cls-1" d="M106.6,103.4h2.3c.4,0,.8,0,1.1.2.3.1.5.3.6.4.2.2.3.4.3.6s0,.4,0,.7,0,.4-.1.6c0,.2-.2.4-.3.6-.1.2-.3.3-.5.4-.2.1-.4.2-.7.2.6,1,1.3,2.1,1.9,3.1h-1.1c-.6-1-1.1-2-1.7-3h-1v3h-.9c0-2.3,0-4.6,0-6.8M107.5,106.4h1.2c.2,0,.4,0,.5,0s.3,0,.5-.2.2-.2.3-.3c0-.1.1-.3.1-.6s0-.4-.1-.6-.2-.3-.3-.3c-.1,0-.3-.1-.5-.2-.2,0-.4,0-.5,0h-1.2v2.2Z"/>
  <path class="cls-1" d="M116.8,103.4h.8c.9,2.3,1.9,4.5,2.9,6.8h-1.1c-.2-.6-.4-1.1-.7-1.7h-3.2l-.7,1.7h-1.1c1-2.3,1.9-4.5,2.9-6.8M118.4,107.7c-.4-1-.8-2.1-1.2-3.1h0l-1.3,3.1h2.5Z"/>
  <path class="cls-1" d="M123.6,103.4h.9v5.9h3.1v.9h-4c0-2.3,0-4.5,0-6.8"/>
  <path class="cls-1" d="M137.8,103.4h.8c.9,2.3,1.9,4.5,2.9,6.8h-1.1c-.2-.6-.4-1.1-.7-1.7h-3.2l-.7,1.7h-1.1c1-2.3,1.9-4.5,2.9-6.8M139.4,107.7c-.4-1-.8-2.1-1.2-3.1h0c-.4,1-.8,2.1-1.3,3.1h2.5Z"/>
  <path class="cls-1" d="M144.6,103.4h2.3c.4,0,.8,0,1.1.2s.5.3.6.4c.2.2.3.4.3.6s0,.4,0,.7,0,.4-.1.6c0,.2-.2.4-.3.6-.1.2-.3.3-.5.4s-.4.2-.7.2c.6,1,1.3,2.1,1.9,3.1h-1.1c-.6-1-1.1-2-1.7-3h-1v3h-.9c0-2.3,0-4.6,0-6.8M145.5,106.4h1.2c.2,0,.4,0,.5,0s.3,0,.5-.2.2-.2.3-.3c0-.1.1-.3.1-.6s0-.4-.1-.6-.2-.3-.3-.3c-.1,0-.3-.1-.5-.2-.2,0-.4,0-.5,0h-1.2v2.2"/>
  <path class="cls-1" d="M153.9,104.3h-2.1v-.9h5.2v.9h-2.1v5.9h-.9v-5.9h0Z"/>
  <path class="cls-1" d="M160.2,103.4h4.3v.9h-3.4v2h3.2v.9h-3.2v2.2h3.6v.9h-4.5v-6.8"/>
  <path class="cls-1" d="M168.4,108.8c.2.2.4.4.6.6.3.1.5.2.8.2s.3,0,.5,0c.2,0,.3-.1.4-.2.1-.1.2-.2.3-.4,0-.1.1-.3.1-.5s0-.5-.2-.6-.4-.2-.6-.4c-.2,0-.5-.2-.8-.3-.3,0-.6-.2-.8-.4-.2-.1-.4-.4-.6-.6-.2-.3-.2-.6-.2-1.1s0-.4.1-.6c0-.2.2-.4.4-.6s.4-.3.7-.5c.3-.1.6-.2,1-.2s.7,0,1,.1c.3.1.6.3.9.6l-.7.7c-.1-.2-.3-.3-.5-.4-.2-.1-.4-.2-.7-.2s-.5,0-.6.1c-.2,0-.3.1-.4.3-.1.1-.2.2-.2.3,0,.1,0,.2,0,.3,0,.3,0,.5.2.7.2.1.4.3.6.4s.5.2.8.3c.3,0,.6.2.8.3.2.1.4.3.6.6.2.2.2.6.2,1,0,.3,0,.6-.2.9-.1.3-.3.5-.5.7-.2.2-.4.3-.7.4-.3.1-.6.1-.9.1s-.8,0-1.2-.2-.7-.4-.9-.7c.2-.2.5-.4.7-.6"/>
  <rect class="cls-1" x="175.8" y="103.4" width=".9" height="6.8"/>
  <path class="cls-1" d="M182.8,103.4h.8c.9,2.3,1.9,4.5,2.9,6.8h-1.1c-.2-.6-.4-1.1-.7-1.7h-3.2l-.7,1.7h-1.1c1-2.3,1.9-4.5,2.9-6.8M184.4,107.7c-.4-1-.8-2.1-1.2-3.1h0c-.4,1-.8,2.1-1.3,3.1h2.5Z"/>
  <path class="cls-1" d="M189.6,103.4h1.2c1.2,1.9,2.4,3.7,3.7,5.6h0v-5.6h.9v6.8h-1.1c-1.2-1.9-2.5-3.7-3.7-5.6h0v5.6h-.9v-6.8h0Z"/>
  <path class="cls-1" d="M203.5,103.4h.9c.5,1.8,1,3.6,1.5,5.4h0c.5-1.8,1-3.6,1.6-5.4h1c.5,1.8,1,3.6,1.6,5.4h0c.5-1.8,1-3.6,1.5-5.4h.9c-.6,2.3-1.3,4.5-1.9,6.8h-1c-.5-1.9-1.1-3.7-1.6-5.6h0c-.5,1.9-1.1,3.7-1.6,5.6h-1c-.6-2.3-1.3-4.5-1.9-6.8"/>
  <path class="cls-1" d="M217.6,103.4h.8c.9,2.3,1.9,4.5,2.9,6.8h-1.1c-.2-.6-.4-1.1-.7-1.7h-3.2l-.7,1.7h-1.1c1-2.3,1.9-4.5,2.9-6.8M219.2,107.7c-.4-1-.8-2.1-1.2-3.1h0c-.4,1-.8,2.1-1.3,3.1h2.5Z"/>
  <path class="cls-1" d="M224.9,104.3h-2.1v-.9h5.2v.9h-2.1v5.9h-.9c0-2,0-4,0-5.9"/>
  <path class="cls-1" d="M231.2,103.4h4.3v.9h-3.4v2h3.2v.9h-3.2v2.2h3.6v.9h-4.5v-6.8h0Z"/>
  <path class="cls-1" d="M239.3,103.4h2.3c.4,0,.8,0,1,.2.3.1.5.3.6.4s.3.4.3.6,0,.4,0,.7,0,.4-.1.6c0,.2-.2.4-.3.6-.1.2-.3.3-.5.4s-.4.2-.7.2c.6,1,1.3,2.1,1.9,3.1h-1.1c-.6-1-1.1-2-1.7-3h-1v3h-.9v-6.8h0ZM240.2,106.4h1.2c.2,0,.4,0,.5,0,.2,0,.3,0,.5-.2s.2-.2.3-.3c0-.1.1-.3.1-.6s0-.4-.1-.6-.2-.3-.3-.3c-.1,0-.3-.1-.5-.2-.2,0-.4,0-.5,0h-1.2v2.2Z"/>
  <path class="cls-1" d="M73.8,90c.4.6.9,1,1.5,1.2s1.2.4,1.8.4.7,0,1.1-.2.7-.3,1-.5c.3-.2.5-.5.7-.8.2-.3.3-.7.3-1.1,0-.6-.2-1-.6-1.3-.4-.3-.8-.6-1.4-.8-.6-.2-1.2-.4-1.8-.6s-1.3-.5-1.8-.8c-.6-.3-1-.8-1.4-1.4s-.6-1.4-.6-2.4,0-.9.3-1.4c.2-.5.5-1,.9-1.4.4-.4,1-.8,1.6-1s1.5-.4,2.4-.4,1.7.1,2.4.3c.8.2,1.5.7,2.1,1.4l-1.7,1.5c-.3-.4-.6-.7-1.1-1s-1-.4-1.7-.4-1.1,0-1.5.2c-.4.2-.7.3-.9.6-.2.2-.4.5-.5.8,0,.3-.1.5-.1.8,0,.6.2,1.1.6,1.5s.8.6,1.4.8c.6.2,1.2.4,1.8.6s1.3.4,1.8.7,1,.7,1.4,1.2c.4.5.6,1.2.6,2.2s-.1,1.4-.4,2c-.3.6-.7,1.1-1.2,1.5-.5.4-1.1.7-1.7.9-.7.2-1.4.3-2.1.3s-1.9-.2-2.8-.5c-.9-.3-1.6-.9-2.1-1.6l1.7-1.4Z"/>
  <path class="cls-1" d="M106.2,80.8c-.1-.5-.4-1-.8-1.4-.4-.4-.9-.8-1.5-1s-1.5-.4-2.5-.4h-5.5v15.2h2.1v-6.7h3.4c1,0,1.8-.1,2.5-.4.6-.3,1.2-.6,1.5-1,.4-.4.6-.9.8-1.4.1-.5.2-1,.2-1.5,0-.5,0-1-.2-1.5ZM103.9,83.5c-.2.3-.4.6-.8.7-.3.2-.7.3-1.1.4-.4,0-.8.1-1.2.1h-2.8v-4.9h2.8c.4,0,.8,0,1.2,0,.4,0,.8.2,1.1.3.3.2.6.4.8.7s.3.7.3,1.3c0,.5,0,.9-.3,1.3Z"/>
  <path class="cls-1" d="M129.4,86.3c.6,0,1.1-.2,1.6-.5.5-.2.9-.6,1.2-.9s.6-.8.8-1.2c.2-.4.3-.9.3-1.4s0-1-.2-1.5-.4-1-.8-1.4c-.4-.4-.9-.8-1.5-1s-1.5-.4-2.5-.4h-5.5v15.2h2.1v-6.7h2.4l4,6.7h2.6l-4.4-6.9ZM127.6,84.7h-2.8v-4.9h2.8c.4,0,.8,0,1.2,0,.4,0,.8.2,1.1.3.3.2.6.4.8.7.2.3.3.7.3,1.3s-.1.9-.3,1.3c-.2.3-.4.6-.8.7-.3.2-.7.3-1.1.4-.4,0-.8.1-1.2.1Z"/>
  <rect class="cls-1" x="151.9" y="78" width="2.1" height="15.2"/>
  <polygon class="cls-1" points="173.8 78 176.6 78 185.1 90.5 185.2 90.5 185.2 78 187.3 78 187.3 93.2 184.6 93.2 175.9 80.7 175.9 80.7 175.9 93.2 173.8 93.2 173.8 78"/>
  <path class="cls-1" d="M218,84.7v7.5c-.4.2-.8.4-1.3.6-.5.2-1,.3-1.5.4-.5.1-1.1.2-1.6.3-.5,0-1,0-1.5,0-1.3,0-2.5-.2-3.5-.6-1-.4-1.9-1-2.6-1.7-.7-.7-1.2-1.6-1.6-2.5-.4-1-.6-2-.6-3.1s.2-2.2.6-3.2c.4-1,1-1.8,1.7-2.5.7-.7,1.6-1.3,2.6-1.7s2.1-.6,3.3-.6,2.6.2,3.5.5,1.7.8,2.3,1.4l-1.5,1.6c-.6-.6-1.3-1-2-1.3-.7-.2-1.5-.4-2.3-.4s-1.7.2-2.4.5-1.3.8-1.9,1.3c-.5.5-.9,1.2-1.2,1.9-.3.7-.4,1.5-.4,2.4s.1,1.7.5,2.4c.3.7.7,1.4,1.3,1.9.5.5,1.2,1,1.9,1.3.7.3,1.5.5,2.4.5s1.5,0,2.1-.2c.7-.1,1.2-.3,1.7-.6v-4.2h-3.4v-1.9h5.6Z"/>
  <path class="cls-1" d="M235,90c.4.6.9,1,1.5,1.2s1.2.4,1.8.4.7,0,1.1-.2.7-.3,1-.5c.3-.2.5-.5.7-.8s.3-.7.3-1.1c0-.6-.2-1-.6-1.3-.4-.3-.9-.6-1.4-.8-.6-.2-1.2-.4-1.9-.6s-1.3-.5-1.9-.8c-.6-.3-1-.8-1.4-1.4s-.6-1.4-.6-2.4.1-.9.3-1.4c.2-.5.5-1,.9-1.4.4-.4,1-.8,1.6-1s1.5-.4,2.4-.4,1.7.1,2.4.3c.8.2,1.5.7,2,1.4l-1.7,1.5c-.3-.4-.6-.7-1.1-1-.5-.2-1-.4-1.6-.4s-1.1,0-1.5.2-.7.3-.9.6c-.2.2-.4.5-.5.8,0,.3-.1.5-.1.8,0,.6.2,1.1.6,1.5s.9.6,1.4.8c.6.2,1.2.4,1.9.6s1.3.4,1.9.7c.6.3,1,.7,1.4,1.2.4.5.6,1.2.6,2.2s-.1,1.4-.4,2c-.3.6-.7,1.1-1.1,1.5-.5.4-1.1.7-1.7.9-.7.2-1.4.3-2.1.3s-1.9-.2-2.8-.5c-.9-.3-1.6-.9-2.1-1.6l1.7-1.4Z"/>
</svg>